{"glyphs":{"0":{"ha":956,"x_min":49,"x_max":907,"o":"m 792 124 q 735 48 792 124 q 478 -28 678 -28 q 163 124 278 -28 q 49 504 49 275 q 163 878 49 729 q 478 1028 278 1026 q 793 880 679 1028 q 907 504 907 732 q 792 124 907 276 m 390 124 q 401 62 390 124 q 478 0 413 0 q 566 122 543 0 q 589 507 589 244 q 566 881 589 761 q 478 1000 543 1000 q 390 882 413 1000 q 367 508 367 764 q 390 124 367 247 z "},"1":{"ha":624,"x_min":14,"x_max":617,"o":"m 47 0 l 47 22 l 179 22 l 179 744 l 14 838 l 14 839 l 485 1035 l 485 22 l 617 22 l 617 0 l 47 0 z "},"2":{"ha":789,"x_min":14,"x_max":747,"o":"m 719 332 l 747 332 l 747 0 l 14 0 l 14 1 l 85 92 q 344 479 269 326 q 418 778 418 632 q 314 1001 418 1001 q 286 997 299 1001 l 142 596 l 140 596 l 25 942 q 356 1028 186 1028 q 640 963 543 1028 q 738 774 738 897 q 631 544 738 656 q 235 250 524 433 l 719 250 l 719 332 z "},"3":{"ha":829,"x_min":25,"x_max":801,"o":"m 446 532 q 703 452 604 522 q 801 279 801 382 q 681 55 801 138 q 340 -28 560 -28 q 44 33 179 -28 l 108 367 l 110 367 l 297 3 q 328 -1 311 -1 q 437 67 392 -1 q 482 253 482 136 q 412 440 482 365 q 222 514 342 514 l 222 528 q 381 591 332 528 q 429 792 429 654 q 402 945 429 889 q 326 1001 375 1001 q 294 997 307 1001 l 150 638 l 149 638 l 25 938 q 374 1028 188 1028 q 648 963 547 1028 q 749 792 749 897 q 665 625 749 696 q 446 532 581 554 z "},"4":{"ha":847,"x_min":21,"x_max":826,"o":"m 826 208 l 694 208 l 694 22 l 813 22 l 813 0 l 306 0 l 306 22 l 389 22 l 389 208 l 21 208 l 21 236 q 210 565 125 335 q 313 1000 296 794 l 710 1000 q 476 622 624 794 q 56 236 329 450 l 389 236 l 389 428 l 694 531 l 694 236 l 826 236 l 826 208 z "},"5":{"ha":769,"x_min":3,"x_max":742,"o":"m 326 -28 q 3 38 163 -28 l 67 372 l 68 372 l 249 6 q 279 0 261 0 q 390 76 343 0 q 436 290 436 153 q 256 539 436 539 q 82 485 153 539 l 78 486 l 151 1000 l 735 1000 l 690 750 l 146 750 l 113 528 q 365 593 228 593 q 642 516 543 593 q 742 306 742 439 q 629 65 742 157 q 326 -28 517 -28 z "},"6":{"ha":908,"x_min":49,"x_max":881,"o":"m 544 611 q 790 531 699 611 q 881 317 881 450 q 763 68 881 164 q 468 -28 644 -28 q 164 79 279 -28 q 49 389 49 186 q 226 798 49 629 q 706 1036 403 967 l 711 1021 q 494 859 572 965 q 386 582 415 753 q 544 611 451 611 m 472 0 q 542 61 524 0 q 561 276 561 122 q 533 505 561 442 q 447 568 504 568 q 381 546 411 568 q 368 333 368 450 q 392 72 368 144 q 472 0 415 0 z "},"7":{"ha":767,"x_min":56,"x_max":753,"o":"m 463 -35 l 81 28 q 628 750 326 454 l 142 750 l 56 621 l 56 1000 l 753 1000 l 651 749 q 463 -35 528 442 z "},"8":{"ha":846,"x_min":36,"x_max":803,"o":"m 624 578 q 760 446 717 511 q 803 303 803 381 q 690 69 803 167 q 418 -28 576 -28 q 143 43 250 -28 q 36 236 36 114 q 103 383 36 324 q 279 453 169 443 q 133 597 174 532 q 93 746 92 663 q 191 947 94 867 q 440 1028 288 1028 q 666 967 575 1028 q 757 822 757 907 q 694 699 757 744 q 525 649 631 654 l 624 578 m 417 999 q 335 967 367 999 q 304 885 304 936 q 408 732 304 806 l 511 658 q 547 828 547 731 q 511 953 547 907 q 417 999 475 999 m 440 1 q 533 42 497 1 q 569 147 569 83 q 432 346 569 250 l 333 414 q 294 442 301 436 q 263 274 263 364 q 310 69 263 138 q 440 1 357 1 z "},"9":{"ha":908,"x_min":28,"x_max":860,"o":"m 440 1028 q 744 921 629 1028 q 860 611 860 814 q 683 202 860 371 q 203 -36 506 33 l 197 -21 q 418 141 339 36 q 524 419 497 246 q 364 389 461 389 q 119 469 210 389 q 28 683 28 550 q 146 932 28 836 q 440 1028 264 1028 m 461 432 q 529 456 494 432 q 540 653 540 551 q 519 923 540 846 q 442 1000 497 1000 q 369 938 390 1000 q 347 724 347 876 q 376 495 347 558 q 461 432 404 432 z "}," ":{"ha":303,"x_min":0,"x_max":0,"o":""},"!":{"ha":583,"x_min":83,"x_max":500,"o":"m 290 354 l 83 1000 l 500 1000 l 292 354 l 290 354 m 388 14 q 369 -4 388 14 q 290 -22 351 -22 q 193 14 229 -22 q 157 113 157 50 q 193 211 157 175 q 290 247 229 247 q 388 211 351 247 q 424 113 424 175 q 388 14 424 50 z "},"\"":{"ha":572,"x_min":35,"x_max":538,"o":"m 139 606 l 35 1014 l 265 1014 l 140 606 l 139 606 m 411 606 l 307 1014 l 538 1014 l 413 606 l 411 606 z "},"#":{"ha":710,"x_min":14,"x_max":696,"o":"m 682 536 l 533 536 l 444 321 l 596 321 l 581 286 l 431 286 l 313 0 l 269 0 l 386 286 l 201 286 l 83 0 l 40 0 l 157 286 l 14 286 l 28 321 l 172 321 l 260 536 l 117 536 l 131 571 l 274 571 l 376 821 l 421 821 l 318 571 l 503 571 l 606 821 l 650 821 l 547 571 l 696 571 l 682 536 m 401 321 l 489 536 l 304 536 l 215 321 l 401 321 z "},"$":{"ha":842,"x_min":35,"x_max":793,"o":"m 793 301 q 697 75 793 165 q 446 -26 600 -15 l 446 -135 l 418 -135 l 418 -28 l 408 -28 q 210 -7 314 -28 q 35 42 106 14 l 133 396 l 135 396 l 311 24 q 406 6 356 6 l 418 6 l 418 343 l 297 411 q 92 717 92 526 q 178 934 92 849 q 418 1028 264 1019 l 418 1133 l 446 1133 l 446 1028 q 761 967 615 1028 l 672 651 l 671 651 l 494 989 q 446 997 471 996 l 446 683 l 610 582 q 749 456 704 522 q 793 301 793 390 m 294 868 q 418 700 294 782 l 418 997 q 329 959 364 996 q 294 868 294 922 m 446 10 q 534 61 500 21 q 568 158 568 101 q 451 325 568 260 l 446 328 l 446 10 z "},"%":{"ha":1354,"x_min":49,"x_max":1306,"o":"m 544 485 q 506 440 544 485 q 335 394 468 394 q 125 485 201 394 q 49 714 49 576 q 124 938 49 849 q 335 1028 200 1026 q 544 939 468 1028 q 619 714 619 850 q 544 485 619 576 m 269 717 q 335 414 269 414 q 400 715 400 414 q 335 1008 400 1008 q 284 938 299 1008 q 269 717 269 868 m 374 0 l 924 1000 l 981 1000 l 429 0 l 374 0 m 1230 63 q 1192 18 1230 63 q 1021 -28 1154 -28 q 811 63 888 -28 q 735 292 735 154 q 810 515 735 426 q 1021 606 886 604 q 1230 517 1154 606 q 1306 292 1306 428 q 1230 63 1306 154 m 956 294 q 1021 -8 956 -8 q 1086 293 1086 -8 q 1021 586 1086 586 q 970 516 985 586 q 956 294 956 446 z "},"&":{"ha":1279,"x_min":56,"x_max":1258,"o":"m 1182 22 l 1258 22 l 1258 0 l 801 0 l 754 51 q 449 -21 626 -21 q 163 51 271 -21 q 56 257 56 122 q 123 434 56 360 q 315 544 190 508 q 251 746 251 642 q 334 944 251 861 q 543 1028 417 1028 q 736 980 660 1028 q 813 860 813 932 q 762 739 813 783 q 594 669 711 694 q 696 554 654 600 l 924 304 q 929 540 964 421 l 819 607 l 1150 607 l 1026 540 q 957 269 1014 388 l 1182 22 m 535 1000 q 484 974 503 1000 q 465 908 465 947 q 586 679 465 824 q 614 847 614 764 q 535 1000 614 1000 m 599 47 q 731 76 664 47 l 432 399 q 321 535 363 472 q 306 442 306 493 q 387 154 306 261 q 599 47 468 47 z "},"'":{"ha":300,"x_min":35,"x_max":265,"o":"m 139 606 l 35 1014 l 265 1014 l 140 606 l 139 606 z "},"(":{"ha":621,"x_min":69,"x_max":615,"o":"m 603 -317 q 217 -51 365 -236 q 69 353 69 133 q 217 757 69 572 q 603 1025 365 942 l 615 1006 q 445 783 500 943 q 390 354 390 622 q 445 -76 390 83 q 615 -297 500 -236 l 603 -317 z "},")":{"ha":621,"x_min":6,"x_max":551,"o":"m 18 1025 q 403 760 256 944 q 551 356 551 575 q 403 -49 551 136 q 18 -317 256 -233 l 6 -297 q 176 -74 121 -235 q 231 354 231 86 q 176 785 231 625 q 6 1006 121 944 l 18 1025 z "},"*":{"ha":508,"x_min":-10,"x_max":518,"o":"m 494 854 q 449 761 518 783 q 367 763 422 753 q 268 772 311 774 q 354 721 303 744 q 421 675 406 697 q 403 572 464 617 q 300 586 342 528 q 276 665 283 608 q 254 763 269 721 q 232 665 239 721 q 208 586 225 608 q 106 572 167 528 q 88 675 44 617 q 154 721 103 697 q 240 772 206 744 q 142 763 197 774 q 60 761 86 753 q 14 854 -10 783 q 106 904 36 925 q 169 855 131 896 q 246 789 208 814 q 206 880 233 831 q 179 957 179 929 q 254 1029 179 1029 q 329 957 329 1029 q 302 880 329 929 q 263 789 275 831 q 339 855 300 814 q 403 904 378 896 q 494 854 472 925 z "},"+":{"ha":833,"x_min":125,"x_max":708,"o":"m 708 476 l 708 449 l 431 449 l 431 171 l 403 171 l 403 449 l 125 449 l 125 476 l 403 476 l 403 754 l 431 754 l 431 476 l 708 476 z "},",":{"ha":411,"x_min":19,"x_max":342,"o":"m 203 249 q 304 211 267 249 q 342 94 342 174 q 261 -133 342 -33 q 19 -292 181 -232 l 19 -289 q 138 -166 100 -226 q 192 -19 176 -106 q 101 23 132 -14 q 69 114 69 60 q 105 212 69 175 q 203 249 140 249 z "},"-":{"ha":529,"x_min":69,"x_max":460,"o":"m 69 308 l 69 392 l 460 392 l 460 308 l 69 308 z "},".":{"ha":350,"x_min":42,"x_max":308,"o":"m 272 15 q 254 -3 272 15 q 175 -21 236 -21 q 78 15 114 -21 q 42 114 42 51 q 78 213 42 176 q 175 249 114 249 q 272 213 236 249 q 308 114 308 176 q 272 15 308 51 z "},"/":{"ha":726,"x_min":7,"x_max":719,"o":"m 7 -192 l 663 1000 l 719 1000 l 63 -192 l 7 -192 z "},":":{"ha":350,"x_min":49,"x_max":315,"o":"m 279 482 q 261 464 279 482 q 182 446 243 446 q 85 482 121 446 q 49 581 49 518 q 85 679 49 643 q 182 715 121 715 q 279 679 243 715 q 315 581 315 643 q 279 482 315 518 m 279 15 q 261 -3 279 15 q 182 -21 243 -21 q 85 15 121 -21 q 49 114 49 51 q 85 213 49 176 q 182 249 121 249 q 279 213 243 249 q 315 114 315 176 q 279 15 315 51 z "},";":{"ha":350,"x_min":-17,"x_max":315,"o":"m 279 481 q 261 463 279 481 q 182 444 243 444 q 85 481 121 444 q 49 579 49 517 q 85 678 49 642 q 182 714 121 714 q 279 678 243 714 q 315 579 315 642 q 279 481 315 517 m 167 249 q 268 211 231 249 q 306 94 306 174 q 225 -133 306 -33 q -17 -292 144 -232 l -17 -289 q 102 -166 64 -226 q 156 -19 140 -106 q 65 23 96 -14 q 33 114 33 60 q 69 212 33 175 q 167 249 104 249 z "},"<":{"ha":833,"x_min":125,"x_max":708,"o":"m 708 171 l 125 449 l 125 476 l 708 754 l 708 722 l 163 463 l 708 203 l 708 171 z "},"=":{"ha":833,"x_min":125,"x_max":708,"o":"m 125 588 l 125 615 l 708 615 l 708 588 l 125 588 m 125 310 l 125 338 l 708 338 l 708 310 l 125 310 z "},">":{"ha":833,"x_min":125,"x_max":708,"o":"m 125 171 l 125 203 l 671 463 l 125 722 l 125 754 l 708 476 l 708 449 l 125 171 z "},"?":{"ha":764,"x_min":42,"x_max":736,"o":"m 303 368 l 301 369 q 394 588 371 496 q 417 808 417 679 q 339 1001 417 1001 q 314 997 325 1001 l 165 611 l 164 611 l 42 938 q 364 1028 192 1028 q 638 960 539 1028 q 736 772 736 892 q 638 557 736 651 q 303 368 539 463 m 472 15 q 454 -3 472 15 q 375 -21 436 -21 q 278 15 314 -21 q 242 114 242 51 q 278 213 242 176 q 375 249 314 249 q 472 213 436 249 q 508 114 508 176 q 472 15 508 51 z "},"@":{"ha":1157,"x_min":42,"x_max":1115,"o":"m 857 636 l 858 636 l 858 282 q 878 128 858 171 q 949 86 897 86 q 1042 160 1001 86 q 1083 343 1083 233 q 935 706 1083 565 q 564 847 788 847 q 207 703 340 847 q 74 351 74 560 q 223 -12 74 129 q 594 -153 372 -153 q 876 -81 760 -153 l 890 -100 q 594 -181 767 -181 q 199 -33 356 -181 q 42 351 42 115 q 183 724 42 574 q 564 875 324 875 q 959 727 803 875 q 1115 343 1115 579 q 1051 117 1115 199 q 857 35 988 35 q 640 163 668 35 q 449 60 549 60 q 300 131 356 60 q 244 329 244 201 q 316 552 244 467 q 503 638 388 638 q 644 590 578 638 l 857 636 m 589 163 q 639 175 614 163 q 636 210 636 197 l 636 576 q 582 593 614 593 q 509 540 536 593 q 482 386 482 486 q 589 163 482 163 z "},"A":{"ha":1075,"x_min":0,"x_max":1075,"o":"m 1011 22 l 1075 22 l 1075 0 l 564 0 l 564 22 l 678 22 l 568 283 l 249 283 l 164 22 l 307 22 l 307 0 l 0 0 l 0 22 l 57 22 l 499 1028 l 571 1028 l 1011 22 m 256 308 l 557 308 l 386 711 l 256 308 z "},"B":{"ha":1071,"x_min":28,"x_max":1022,"o":"m 658 536 q 924 455 825 525 q 1022 269 1022 385 q 905 74 1022 147 q 597 0 788 0 l 40 0 l 40 22 l 151 22 l 151 925 l 28 1000 l 529 1000 q 851 942 738 1000 q 965 771 965 885 q 892 623 965 681 q 658 536 819 565 m 479 978 l 457 978 l 457 544 l 482 544 q 646 761 646 544 q 479 978 646 978 m 486 22 q 651 82 600 22 q 703 265 703 142 q 645 456 703 390 q 496 522 588 522 l 457 522 l 457 22 l 486 22 z "},"C":{"ha":978,"x_min":42,"x_max":957,"o":"m 571 -28 q 188 129 333 -28 q 42 533 42 286 q 180 892 42 757 q 546 1028 318 1028 q 910 943 747 1028 l 788 458 l 786 458 q 605 772 685 657 q 472 925 525 886 q 365 964 418 964 q 287 924 317 964 q 257 806 257 885 q 307 556 257 676 q 438 350 357 436 q 626 213 519 264 q 842 161 732 161 q 956 179 918 161 l 957 178 q 800 29 906 86 q 571 -28 694 -28 z "},"D":{"ha":1138,"x_min":28,"x_max":1096,"o":"m 518 1000 q 945 874 794 1000 q 1096 513 1096 749 q 937 134 1096 268 q 500 0 778 0 l 40 0 l 40 22 l 151 22 l 151 925 l 28 1000 l 518 1000 m 479 22 q 696 152 615 22 q 776 511 776 282 q 703 858 776 738 q 492 978 629 978 l 457 978 l 457 22 l 479 22 z "},"E":{"ha":976,"x_min":28,"x_max":893,"o":"m 892 653 q 691 901 797 826 q 457 978 585 976 l 457 533 q 589 587 524 536 q 693 717 654 638 l 694 717 l 694 329 l 693 329 q 590 460 654 410 q 457 514 525 511 l 457 22 q 692 99 586 25 q 892 347 797 174 l 893 347 l 893 0 l 40 0 l 40 22 l 151 22 l 151 925 l 28 1000 l 893 1000 l 893 653 l 892 653 z "},"F":{"ha":922,"x_min":29,"x_max":874,"o":"m 874 1000 l 874 679 l 872 679 q 669 909 763 840 q 465 978 576 978 l 458 978 l 458 528 q 589 583 518 533 q 694 690 660 632 l 696 690 l 696 344 l 694 344 q 589 451 660 403 q 458 506 518 500 l 458 22 l 618 22 l 618 0 l 42 0 l 42 22 l 153 22 l 153 925 l 29 1000 l 874 1000 z "},"G":{"ha":1060,"x_min":42,"x_max":990,"o":"m 610 -28 q 196 124 350 -28 q 42 513 42 275 q 181 881 42 735 q 560 1028 321 1028 q 925 943 763 1028 l 817 538 l 814 538 q 393 967 568 967 q 305 921 339 967 q 271 788 271 875 q 396 370 271 603 q 699 1 521 138 l 699 353 l 574 456 l 990 456 l 990 100 q 610 -28 832 -28 z "},"H":{"ha":1242,"x_min":28,"x_max":1214,"o":"m 1090 926 l 1090 22 l 1201 22 l 1201 0 l 674 0 l 674 22 l 785 22 l 785 518 l 457 518 l 457 22 l 568 22 l 568 0 l 40 0 l 40 22 l 151 22 l 151 926 l 28 1000 l 581 1000 l 457 926 l 457 543 l 785 543 l 785 926 l 661 1000 l 1214 1000 l 1090 926 z "},"I":{"ha":608,"x_min":28,"x_max":581,"o":"m 40 0 l 40 22 l 151 22 l 151 925 l 28 1000 l 581 1000 l 457 925 l 457 22 l 568 22 l 568 0 l 40 0 z "},"J":{"ha":608,"x_min":-24,"x_max":581,"o":"m 104 -222 q -24 -206 36 -222 l -24 -197 l -7 -197 q 116 -140 81 -197 q 151 75 151 -83 l 151 925 l 28 1000 l 581 1000 l 457 925 l 457 476 l 458 476 l 458 122 q 368 -131 458 -39 q 104 -222 278 -222 z "},"K":{"ha":1171,"x_min":28,"x_max":1192,"o":"m 457 925 l 457 22 l 561 22 l 561 0 l 40 0 l 40 22 l 151 22 l 151 925 l 28 1000 l 581 1000 l 457 925 m 1122 22 l 1192 22 l 1192 0 l 771 0 l 471 479 l 833 926 l 710 1000 l 1144 1000 l 679 700 l 1122 22 z "},"L":{"ha":942,"x_min":28,"x_max":900,"o":"m 899 422 l 900 422 l 900 0 l 40 0 l 40 22 l 151 22 l 151 925 l 28 1000 l 581 1000 l 457 925 l 457 22 l 468 22 q 710 124 599 22 q 899 422 821 225 z "},"M":{"ha":1506,"x_min":14,"x_max":1486,"o":"m 1381 22 l 1486 22 l 1486 0 l 935 0 l 935 22 l 1074 22 l 964 874 l 671 -7 l 594 -7 l 246 875 l 208 22 l 351 22 l 351 0 l 14 0 l 14 22 l 103 22 l 225 924 l 225 925 l 100 1000 l 525 1000 l 768 363 l 922 1000 l 1392 1000 l 1267 925 l 1381 22 z "},"N":{"ha":1106,"x_min":21,"x_max":1092,"o":"m 736 1000 l 1092 1000 l 967 928 l 967 0 l 894 0 l 182 839 l 238 22 l 406 22 l 406 0 l 56 0 l 56 22 l 132 22 l 154 919 l 21 1000 l 444 1000 l 939 394 l 861 928 l 736 1000 z "},"O":{"ha":1115,"x_min":42,"x_max":1074,"o":"m 574 -28 q 194 124 346 -28 q 42 504 42 275 q 99 760 42 643 q 274 953 157 878 q 543 1028 390 1028 q 922 876 771 1028 q 1074 496 1074 724 q 1017 240 1074 357 q 843 47 960 122 q 574 -28 726 -28 m 764 50 q 858 168 858 50 q 774 499 858 313 q 568 818 689 686 q 351 950 447 950 q 283 919 308 950 q 258 832 258 889 q 311 584 258 724 q 439 328 364 444 q 604 131 514 211 q 764 50 694 50 z "},"P":{"ha":1000,"x_min":29,"x_max":979,"o":"m 979 701 q 844 461 979 547 q 458 374 708 375 l 458 22 l 583 22 l 583 0 l 42 0 l 42 22 l 153 22 l 153 925 l 29 1000 l 481 1000 q 853 918 728 1000 q 979 701 979 836 m 474 978 l 458 978 l 458 396 q 605 478 550 397 q 660 700 660 560 q 609 906 660 833 q 474 978 558 978 z "},"Q":{"ha":1115,"x_min":42,"x_max":1126,"o":"m 1126 -189 q 646 -139 857 -192 q 305 10 435 -86 q 108 231 175 106 q 42 504 42 356 q 99 760 42 643 q 274 953 157 878 q 543 1028 390 1028 q 922 876 771 1028 q 1074 496 1074 724 q 1009 229 1074 350 q 833 42 944 108 q 858 168 858 93 q 774 499 858 313 q 567 818 689 686 q 349 950 446 950 q 258 832 258 950 q 328 538 258 700 q 512 228 397 376 q 790 -35 626 81 q 1126 -187 954 -151 l 1126 -189 z "},"R":{"ha":1104,"x_min":28,"x_max":1118,"o":"m 1051 22 l 1118 22 l 1118 0 l 722 0 l 457 458 l 457 22 l 575 22 l 575 0 l 40 0 l 40 22 l 151 22 l 151 925 l 28 1000 l 551 1000 q 871 938 760 1000 q 982 751 982 875 q 756 490 982 551 l 1051 22 m 501 978 l 457 978 l 457 485 q 621 551 579 492 q 663 749 663 611 q 622 917 663 857 q 501 978 581 978 z "},"S":{"ha":828,"x_min":49,"x_max":793,"o":"m 400 -28 q 49 28 215 -28 l 131 383 l 132 383 l 325 19 q 397 6 358 6 q 519 49 471 6 q 568 160 568 93 q 451 326 568 264 l 293 413 q 88 718 88 525 q 182 940 88 853 q 442 1028 276 1028 q 757 967 613 1028 l 675 660 l 674 660 l 490 989 q 422 997 457 997 q 329 961 368 997 q 290 869 290 925 q 428 693 290 775 l 610 583 q 793 303 793 474 q 683 65 793 158 q 400 -28 574 -28 z "},"T":{"ha":1068,"x_min":35,"x_max":1033,"o":"m 1033 1000 l 1033 608 l 1032 608 q 686 976 882 953 l 686 22 l 811 22 l 811 0 l 256 0 l 256 22 l 381 22 l 381 976 q 36 608 186 953 l 35 608 l 35 1000 l 1033 1000 z "},"U":{"ha":1088,"x_min":7,"x_max":1088,"o":"m 582 -28 q 236 78 342 -28 q 131 411 131 185 l 131 926 l 7 1000 l 560 1000 l 436 926 l 436 392 q 492 101 436 186 q 661 15 547 15 q 836 107 781 15 q 882 397 892 199 l 858 926 l 693 1000 l 1088 1000 l 964 926 l 939 353 q 850 55 929 138 q 582 -28 771 -28 z "},"V":{"ha":1133,"x_min":0,"x_max":1133,"o":"m 739 1000 l 1133 1000 l 1010 925 l 610 -28 l 538 -28 l 110 925 l 0 1000 l 568 1000 l 444 925 l 718 296 l 904 925 l 739 1000 z "},"W":{"ha":1565,"x_min":0,"x_max":1565,"o":"m 1171 1000 l 1565 1000 l 1442 925 l 1085 -28 l 1013 -28 l 797 636 l 547 -28 l 475 -28 l 110 925 l 0 1000 l 582 1000 l 438 925 l 654 329 l 763 742 l 689 967 l 992 1021 l 1199 343 l 1336 925 l 1171 1000 z "},"X":{"ha":1106,"x_min":14,"x_max":1092,"o":"m 999 22 l 1092 22 l 1092 0 l 547 0 l 547 22 l 649 22 l 419 429 l 214 22 l 314 22 l 314 0 l 14 0 l 14 22 l 108 22 l 407 451 l 139 925 l 29 1000 l 600 1000 l 490 925 l 688 575 l 846 925 l 701 1000 l 1075 1000 l 951 925 l 701 551 l 999 22 z "},"Y":{"ha":1113,"x_min":0,"x_max":1113,"o":"m 989 925 l 719 394 l 719 22 l 831 22 l 831 0 l 303 0 l 303 22 l 414 22 l 414 314 l 110 925 l 0 1000 l 568 1000 l 444 925 l 701 411 l 868 925 l 717 1000 l 1113 1000 l 989 925 z "},"Z":{"ha":993,"x_min":28,"x_max":938,"o":"m 938 1000 l 938 999 l 386 22 l 485 22 q 727 124 617 22 q 915 424 838 225 l 917 424 l 917 0 l 28 0 l 28 1 l 581 978 l 551 978 q 294 890 397 978 q 93 575 190 801 l 92 575 l 92 1000 l 938 1000 z "},"[":{"ha":583,"x_min":83,"x_max":528,"o":"m 83 -306 l 83 1000 l 528 1000 l 528 972 l 389 972 l 389 -278 l 528 -278 l 528 -306 l 83 -306 z "},"\\":{"ha":726,"x_min":7,"x_max":719,"o":"m 719 -192 l 664 -192 l 7 1000 l 64 1000 l 719 -192 z "},"]":{"ha":583,"x_min":56,"x_max":500,"o":"m 500 1000 l 500 -306 l 56 -306 l 56 -278 l 194 -278 l 194 972 l 56 972 l 56 1000 l 500 1000 z "},"^":{"ha":833,"x_min":125,"x_max":708,"o":"m 125 171 l 403 754 l 431 754 l 708 171 l 676 171 l 417 717 l 157 171 l 125 171 z "},"_":{"ha":606,"x_min":14,"x_max":592,"o":"m 14 -72 l 14 -28 l 592 -28 l 592 -72 l 14 -72 z "},"`":{"ha":694,"x_min":176,"x_max":518,"o":"m 517 736 l 176 1026 l 176 1028 l 469 1028 l 518 736 l 517 736 z "},"a":{"ha":760,"x_min":21,"x_max":735,"o":"m 665 22 l 735 22 l 735 0 l 388 0 l 388 79 q 172 -14 278 -14 q 63 23 104 -14 q 21 125 21 60 q 117 282 21 221 q 388 363 214 343 q 344 533 388 475 q 221 592 301 592 q 68 539 138 592 l 61 546 q 397 708 207 708 q 665 407 665 708 l 665 22 m 356 94 q 388 99 369 94 l 388 344 q 272 194 272 311 q 356 94 272 94 z "},"b":{"ha":897,"x_min":3,"x_max":849,"o":"m 601 708 q 780 622 711 708 q 849 379 849 536 q 740 88 849 189 q 425 -14 632 -14 q 82 39 250 -14 l 82 849 l 3 917 l 360 1042 l 360 585 q 601 708 481 708 m 428 14 q 518 85 485 14 q 551 300 551 156 q 418 579 551 579 q 360 565 392 579 l 360 35 q 428 14 389 14 z "},"c":{"ha":721,"x_min":47,"x_max":685,"o":"m 397 -14 q 149 82 250 -14 q 49 333 47 178 q 155 600 50 492 q 432 708 260 708 q 671 664 550 708 l 617 276 l 615 276 q 432 556 519 458 q 282 654 344 654 q 226 579 226 654 q 360 266 226 413 q 642 119 494 119 q 683 125 667 119 l 685 124 q 397 -14 593 -14 z "},"d":{"ha":910,"x_min":49,"x_max":885,"o":"m 815 22 l 885 22 l 885 0 l 538 0 l 538 110 q 296 -14 417 -14 q 117 73 186 -14 q 49 315 49 160 q 138 599 49 489 q 371 708 228 708 q 538 657 461 708 l 538 849 l 458 917 l 815 1042 l 815 22 m 479 115 q 538 129 506 115 l 538 633 q 469 654 508 654 q 380 587 414 654 q 346 394 346 519 q 479 115 346 115 z "},"e":{"ha":700,"x_min":49,"x_max":686,"o":"m 685 126 l 686 125 q 406 -14 594 -14 q 151 83 254 -14 q 49 338 49 181 q 147 601 49 494 q 407 708 244 708 q 566 658 504 708 q 628 531 628 607 q 562 370 628 443 q 372 251 496 297 q 644 122 504 122 q 685 126 665 122 m 278 660 q 221 578 221 660 q 260 410 221 494 q 364 260 299 326 q 418 436 418 329 q 372 591 418 522 q 278 660 325 660 z "},"f":{"ha":540,"x_min":14,"x_max":651,"o":"m 446 1042 q 651 1000 557 1042 l 614 729 l 613 729 l 500 893 q 410 1013 428 1000 q 397 1017 403 1018 q 375 875 375 1008 l 375 681 l 554 681 l 554 658 l 375 658 l 375 22 l 493 22 l 493 0 l 28 0 l 28 22 l 97 22 l 97 635 l 97 658 l 14 658 l 14 681 l 99 681 q 202 953 110 865 q 446 1042 294 1042 z "},"g":{"ha":793,"x_min":-14,"x_max":786,"o":"m 785 783 l 786 782 l 786 554 l 785 553 q 568 649 657 629 q 668 432 668 574 q 585 234 668 311 q 361 157 501 157 q 160 214 244 157 q 185 114 149 151 q 310 76 222 76 l 469 76 q 718 -94 718 76 q 600 -284 718 -212 q 290 -356 482 -356 q -14 -226 -14 -356 q 78 -125 -14 -160 q 33 -3 33 -81 q 147 224 33 108 q 47 433 47 299 q 133 630 47 551 q 365 708 218 708 q 550 661 475 708 q 785 783 597 686 m 463 197 q 515 258 515 197 q 432 478 515 329 q 332 627 372 583 q 258 671 292 671 q 220 654 236 671 q 204 610 204 638 q 288 390 204 544 q 463 197 392 197 m 264 -182 q 86 -132 144 -182 q 186 -274 110 -226 q 372 -321 263 -321 q 508 -295 453 -321 q 564 -231 564 -269 q 414 -182 564 -182 l 264 -182 z "},"h":{"ha":913,"x_min":17,"x_max":888,"o":"m 818 22 l 888 22 l 888 0 l 485 0 l 485 22 l 540 22 l 540 440 q 521 552 540 519 q 457 585 501 585 q 374 564 419 585 l 374 22 l 429 22 l 429 0 l 26 0 l 26 22 l 96 22 l 96 849 l 17 917 l 374 1042 l 374 583 q 512 682 450 649 q 639 715 574 715 q 818 500 818 715 l 818 22 z "},"i":{"ha":468,"x_min":17,"x_max":443,"o":"m 348 788 q 327 767 348 788 q 235 746 307 746 q 122 788 163 746 q 81 901 81 831 q 122 1013 81 971 q 235 1056 163 1056 q 348 1013 307 1056 q 389 901 389 971 q 348 788 389 831 m 26 0 l 26 22 l 96 22 l 96 529 l 17 597 l 374 722 l 374 22 l 443 22 l 443 0 l 26 0 z "},"j":{"ha":449,"x_min":-64,"x_max":383,"o":"m 342 788 q 322 767 342 788 q 229 746 301 746 q 116 788 157 746 q 75 901 75 831 q 116 1013 75 971 q 229 1056 157 1056 q 342 1013 301 1056 q 383 901 383 971 q 342 788 383 831 m 51 -356 q -64 -340 -8 -356 l -64 -325 l -49 -325 q 63 -273 31 -325 q 96 -76 96 -221 l 96 531 l 17 599 l 374 722 l 374 -43 q 292 -272 374 -189 q 51 -356 210 -356 z "},"k":{"ha":931,"x_min":17,"x_max":926,"o":"m 869 22 l 926 22 l 926 0 l 581 0 l 374 324 l 374 22 l 415 22 l 415 0 l 26 0 l 26 22 l 96 22 l 96 849 l 17 917 l 374 1042 l 374 346 l 479 422 q 558 493 535 463 q 581 568 581 524 q 521 667 581 636 l 521 674 l 799 674 q 810 639 810 658 q 769 568 810 600 q 653 503 729 536 l 568 465 l 869 22 z "},"l":{"ha":468,"x_min":17,"x_max":443,"o":"m 26 0 l 26 22 l 96 22 l 96 849 l 17 917 l 374 1042 l 374 22 l 443 22 l 443 0 l 26 0 z "},"m":{"ha":1340,"x_min":17,"x_max":1315,"o":"m 1246 22 l 1315 22 l 1315 0 l 913 0 l 913 22 l 968 22 l 968 440 q 952 553 968 522 q 892 585 936 585 q 806 564 847 585 q 810 500 810 535 l 810 22 l 865 22 l 865 0 l 476 0 l 476 22 l 532 22 l 532 440 q 516 553 532 522 q 456 585 500 585 q 374 567 411 585 l 374 22 l 429 22 l 429 0 l 26 0 l 26 22 l 96 22 l 96 529 l 17 597 l 374 722 l 374 583 q 521 685 461 654 q 638 715 581 715 q 803 578 775 715 q 955 683 893 651 q 1074 715 1017 715 q 1246 500 1246 715 l 1246 22 z "},"n":{"ha":913,"x_min":17,"x_max":888,"o":"m 818 22 l 888 22 l 888 0 l 485 0 l 485 22 l 540 22 l 540 440 q 521 552 540 519 q 457 585 501 585 q 374 564 419 585 l 374 22 l 429 22 l 429 0 l 26 0 l 26 22 l 96 22 l 96 529 l 17 597 l 374 722 l 374 583 q 512 682 450 649 q 639 715 574 715 q 818 500 818 715 l 818 22 z "},"o":{"ha":874,"x_min":49,"x_max":825,"o":"m 432 -14 q 163 88 276 -14 q 49 351 49 189 q 156 606 49 503 q 431 708 263 708 q 715 610 604 708 q 825 351 825 513 q 724 89 825 192 q 432 -14 622 -14 m 588 36 q 644 107 644 36 q 582 298 644 165 q 433 544 519 431 q 289 658 346 658 q 233 590 233 658 q 297 390 233 524 q 447 146 361 256 q 588 36 533 36 z "},"p":{"ha":911,"x_min":17,"x_max":863,"o":"m 615 708 q 794 622 725 708 q 863 379 863 536 q 773 92 863 199 q 540 -14 683 -14 q 374 36 451 -14 l 374 -325 l 485 -325 l 485 -347 l 26 -347 l 26 -325 l 96 -325 l 96 529 l 17 597 l 374 722 l 374 585 q 615 708 494 708 m 442 39 q 531 108 497 39 q 565 300 565 178 q 432 579 565 579 q 374 565 406 579 l 374 60 q 442 39 403 39 z "},"q":{"ha":904,"x_min":49,"x_max":885,"o":"m 815 -325 l 885 -325 l 885 -347 l 426 -347 l 426 -325 l 538 -325 l 538 108 q 296 -14 418 -14 q 117 72 186 -14 q 49 314 49 157 q 156 606 49 504 q 472 708 264 708 q 815 656 647 708 l 815 -325 m 479 114 q 538 128 506 114 l 538 660 q 469 681 508 681 q 379 609 413 681 q 346 393 346 538 q 479 114 346 114 z "},"r":{"ha":669,"x_min":17,"x_max":633,"o":"m 607 710 q 633 706 621 710 l 633 338 l 632 338 q 471 492 529 451 q 374 525 413 532 l 374 22 l 478 22 l 478 0 l 26 0 l 26 22 l 96 22 l 96 526 l 17 594 l 374 714 l 374 540 q 496 664 433 618 q 607 710 558 710 z "},"s":{"ha":626,"x_min":35,"x_max":606,"o":"m 514 50 q 468 18 514 50 q 289 -14 422 -14 q 35 22 156 -14 l 78 249 l 79 249 l 251 18 q 297 11 275 11 q 372 35 344 11 q 400 100 400 58 q 381 151 400 131 q 317 196 363 172 l 225 244 q 95 345 136 292 q 54 476 54 399 q 135 645 54 582 q 353 708 215 708 q 583 668 474 708 l 529 449 l 528 449 l 367 678 q 343 682 357 682 q 276 660 300 682 q 251 608 251 639 q 274 542 251 571 q 356 482 296 513 l 460 426 q 606 219 606 349 q 514 50 606 114 z "},"t":{"ha":608,"x_min":7,"x_max":615,"o":"m 614 129 l 615 128 q 344 -14 526 -14 q 169 56 224 -14 q 114 264 114 125 l 114 658 l 7 658 l 7 660 l 392 963 l 392 681 l 588 681 l 588 658 l 392 658 l 392 335 q 424 164 392 214 q 532 114 456 114 q 614 129 575 114 z "},"u":{"ha":886,"x_min":7,"x_max":861,"o":"m 792 22 l 861 22 l 861 0 l 514 0 l 514 107 q 424 44 457 65 q 346 3 390 22 q 265 -15 301 -15 q 129 42 172 -15 q 86 222 86 99 l 86 521 l 7 589 l 364 714 l 364 278 q 378 150 364 185 q 443 115 393 115 q 514 129 475 115 l 514 528 l 435 596 l 792 721 l 792 22 z "},"v":{"ha":826,"x_min":0,"x_max":826,"o":"m 565 681 l 826 681 l 733 613 l 424 -21 l 388 -21 l 93 613 l 0 681 l 485 681 l 392 613 l 528 239 l 663 613 l 565 681 z "},"w":{"ha":1278,"x_min":0,"x_max":1278,"o":"m 1007 681 l 1278 681 l 1185 613 l 861 -21 l 828 -21 l 643 443 l 411 -21 l 376 -21 l 93 613 l 0 681 l 483 681 l 390 613 l 518 238 l 617 507 l 558 654 l 825 708 l 969 236 l 1114 613 l 1007 681 z "},"x":{"ha":817,"x_min":-15,"x_max":819,"o":"m 532 374 l 754 21 l 817 21 l 817 0 l 375 0 l 375 21 l 444 21 l 278 286 l 146 21 l 233 21 l 233 0 l 10 0 l 10 21 l 65 21 l 263 310 l 72 613 l -15 681 l 461 681 l 382 613 l 519 394 l 654 613 l 547 681 l 819 681 l 726 613 l 532 374 z "},"y":{"ha":842,"x_min":0,"x_max":842,"o":"m 572 681 l 842 681 l 749 613 l 447 0 l 282 -362 l 18 -178 l 422 7 l 94 613 l 0 681 l 488 681 l 394 613 l 549 247 l 679 613 l 572 681 z "},"z":{"ha":735,"x_min":14,"x_max":714,"o":"m 14 0 l 418 658 l 403 658 q 235 583 321 658 q 74 356 150 507 l 72 356 l 72 681 l 714 681 l 313 22 l 333 22 q 526 110 428 22 q 679 329 625 199 l 681 329 l 681 0 l 14 0 z "},"{":{"ha":601,"x_min":83,"x_max":582,"o":"m 532 -264 q 579 -257 554 -264 l 582 -278 q 417 -306 508 -306 q 175 -244 267 -306 q 83 -76 83 -182 q 101 6 83 -33 q 142 73 118 44 q 190 128 167 101 q 231 184 214 154 q 249 244 249 214 q 86 347 249 347 l 86 368 q 249 471 249 368 q 231 531 249 501 q 190 588 214 561 q 142 642 167 614 q 101 710 118 671 q 83 792 83 749 q 175 965 83 901 q 417 1028 267 1028 q 582 1000 508 1028 l 576 979 q 529 986 551 986 q 433 949 469 986 q 396 842 396 913 q 438 692 396 782 q 479 550 479 603 q 426 419 479 469 q 271 358 372 368 q 425 293 371 346 q 479 165 479 240 q 438 23 479 113 q 396 -126 396 -67 q 433 -228 396 -193 q 532 -264 471 -264 z "},"|":{"ha":500,"x_min":226,"x_max":274,"o":"m 226 -347 l 226 1160 l 274 1160 l 274 -347 l 226 -347 z "},"}":{"ha":601,"x_min":19,"x_max":518,"o":"m 515 354 q 353 251 353 354 q 370 191 353 221 q 412 135 388 161 q 460 80 436 108 q 501 13 483 51 q 518 -69 518 -26 q 426 -242 518 -179 q 185 -306 335 -306 q 19 -278 93 -306 l 25 -257 q 72 -264 50 -264 q 169 -227 132 -264 q 206 -119 206 -190 q 164 30 206 -60 q 122 172 122 119 q 176 303 122 253 q 331 364 229 354 q 176 429 231 376 q 122 557 122 482 q 164 699 122 610 q 206 849 206 789 q 168 951 206 915 q 69 986 131 986 q 22 979 47 986 l 19 1000 q 185 1028 93 1028 q 426 966 335 1028 q 518 799 518 904 q 501 717 518 756 q 459 649 483 678 q 411 594 435 621 q 370 538 388 568 q 353 478 353 508 q 515 375 353 375 l 515 354 z "},"~":{"ha":833,"x_min":125,"x_max":708,"o":"m 568 414 q 416 449 526 414 q 261 483 306 483 q 125 449 186 483 l 125 476 q 261 511 186 511 q 417 476 306 511 q 568 442 529 442 q 708 476 639 442 l 708 449 q 568 414 639 414 z "},"¡":{"ha":583,"x_min":83,"x_max":500,"o":"m 196 988 q 214 1006 196 988 q 293 1024 232 1024 q 390 988 354 1024 q 426 889 426 951 q 390 790 426 826 q 293 754 354 754 q 196 790 232 754 q 160 889 160 826 q 196 988 160 951 m 293 647 l 500 1 l 83 1 l 292 647 l 293 647 z "},"¢":{"ha":714,"x_min":47,"x_max":678,"o":"m 678 264 q 410 128 594 135 l 410 15 l 382 15 l 382 128 q 143 227 239 133 q 49 474 47 321 q 140 724 50 618 q 382 847 231 831 l 382 964 l 410 964 l 410 850 l 432 850 q 671 806 550 850 l 617 417 l 615 417 q 282 800 410 800 q 224 722 224 800 q 360 413 224 563 q 638 263 497 263 q 676 265 664 263 l 678 264 z "},"£":{"ha":897,"x_min":49,"x_max":869,"o":"m 868 321 l 869 321 l 869 0 l 58 0 l 58 22 l 151 22 q 276 90 231 43 q 321 197 321 138 q 313 258 321 229 q 285 315 304 286 q 253 360 267 343 q 208 411 239 378 q 165 458 178 444 l 49 458 l 49 483 l 144 483 q 65 701 65 585 q 177 942 65 856 q 490 1028 289 1028 q 843 936 685 1028 l 732 631 l 731 631 l 590 985 q 517 1001 560 1001 q 420 944 456 1001 q 385 785 385 888 q 390 706 385 743 q 408 635 396 669 q 429 583 421 601 q 458 528 438 564 q 482 483 478 492 l 678 483 l 678 458 l 494 458 q 525 331 525 394 q 428 146 525 238 q 200 22 332 54 l 451 22 q 655 83 568 22 q 868 321 742 143 z "},"¤":{"ha":694,"x_min":58,"x_max":642,"o":"m 521 642 q 578 493 578 578 q 521 342 578 408 l 642 221 l 622 200 l 500 322 q 351 265 439 265 q 201 322 268 265 l 79 200 l 58 219 l 181 342 q 124 493 124 408 q 181 642 124 578 l 58 764 l 79 783 l 200 663 q 351 719 267 719 q 501 663 435 719 l 622 783 l 642 763 l 521 642 m 217 357 q 245 328 217 357 q 351 300 272 300 q 485 357 431 300 q 539 493 539 414 q 485 628 539 572 q 351 685 431 685 q 217 628 272 685 q 163 493 163 572 q 217 357 163 414 z "},"¥":{"ha":1008,"x_min":0,"x_max":1008,"o":"m 1008 1000 l 885 925 l 694 553 l 876 553 l 876 528 l 681 528 l 664 494 l 664 421 l 876 421 l 876 396 l 664 396 l 664 22 l 747 22 l 747 0 l 275 0 l 275 22 l 358 22 l 358 396 l 129 396 l 129 421 l 358 421 l 358 461 l 322 528 l 129 528 l 129 553 l 310 553 l 110 925 l 0 1000 l 568 1000 l 444 925 l 653 518 l 785 925 l 675 1000 l 1008 1000 z "},"¦":{"ha":500,"x_min":226,"x_max":274,"o":"m 226 535 l 226 1160 l 274 1160 l 274 535 l 226 535 m 226 -347 l 226 278 l 274 278 l 274 -347 l 226 -347 z "},"§":{"ha":711,"x_min":56,"x_max":663,"o":"m 450 313 q 614 88 614 225 q 531 -83 614 -14 q 322 -151 449 -151 q 65 -108 186 -151 l 119 111 l 121 111 l 282 -118 q 332 -125 301 -125 q 392 -103 368 -125 q 417 -44 417 -81 q 398 17 417 -7 q 319 75 379 42 l 215 135 q 94 233 132 182 q 56 354 56 285 q 106 489 56 429 q 246 575 157 549 q 97 796 97 651 q 178 963 97 897 q 396 1028 260 1028 q 626 988 517 1028 l 572 767 l 571 767 l 410 997 q 386 1001 400 1001 q 320 978 346 1001 q 294 921 294 954 q 319 857 294 885 q 399 801 343 829 l 503 749 q 663 546 663 668 q 611 400 663 456 q 450 313 560 344 m 358 361 l 435 321 q 472 399 472 343 q 360 522 472 472 l 268 564 l 258 568 q 246 507 246 542 q 271 428 246 461 q 358 361 296 394 z "},"¨":{"ha":696,"x_min":63,"x_max":633,"o":"m 286 797 q 269 777 286 797 q 192 758 251 758 q 97 797 132 758 q 63 896 63 835 q 97 994 63 956 q 192 1033 132 1033 q 286 994 251 1033 q 321 896 321 956 q 286 797 321 835 m 599 797 q 581 777 599 797 q 504 758 564 758 q 410 797 444 758 q 375 896 375 835 q 410 994 375 956 q 504 1033 444 1033 q 599 994 564 1033 q 633 896 633 956 q 599 797 633 835 z "},"©":{"ha":1157,"x_min":42,"x_max":1115,"o":"m 594 -28 q 199 120 356 -28 q 42 504 42 268 q 183 877 42 726 q 564 1028 324 1028 q 959 880 803 1028 q 1115 496 1115 732 q 975 122 1115 272 q 594 -28 835 -28 m 594 0 q 951 143 819 0 q 1083 496 1083 286 q 935 859 1083 718 q 564 1000 788 1000 q 207 856 340 1000 q 74 504 74 713 q 223 141 74 282 q 594 0 372 0 m 615 185 q 374 278 465 185 q 282 521 282 372 q 369 737 282 656 q 600 818 456 818 q 829 767 726 818 l 753 476 l 751 476 q 601 714 657 653 q 496 775 546 775 q 440 751 461 775 q 418 679 418 726 q 531 413 418 526 q 786 299 644 299 q 858 308 835 299 l 860 308 q 760 219 826 253 q 615 185 694 185 z "},"ª":{"ha":508,"x_min":31,"x_max":483,"o":"m 444 624 l 483 624 l 483 603 l 261 603 l 261 649 q 129 594 193 594 q 58 617 86 594 q 31 678 31 640 q 91 772 31 736 q 261 819 151 808 q 160 956 261 956 q 65 925 106 956 l 60 931 q 271 1028 150 1028 q 444 847 444 1028 l 444 624 m 244 660 q 261 663 254 660 l 261 806 q 194 719 194 788 q 244 660 194 660 z "},"«":{"ha":685,"x_min":28,"x_max":650,"o":"m 385 631 l 386 629 l 228 343 l 386 57 l 385 56 l 28 342 l 28 343 l 385 631 m 649 631 l 650 629 l 492 343 l 650 57 l 649 56 l 292 342 l 292 343 l 649 631 z "},"¬":{"ha":833,"x_min":125,"x_max":708,"o":"m 681 171 l 681 449 l 125 449 l 125 476 l 708 476 l 708 171 l 681 171 z "},"­":{"ha":529,"x_min":69,"x_max":460,"o":"m 69 308 l 69 392 l 460 392 l 460 308 l 69 308 z "},"®":{"ha":840,"x_min":42,"x_max":799,"o":"m 142 928 q 192 978 142 928 q 410 1028 242 1028 q 688 929 578 1028 q 799 674 799 831 q 699 426 799 526 q 432 325 600 325 q 152 424 263 325 q 42 679 42 522 q 142 928 42 828 m 172 440 q 224 394 172 440 q 432 347 276 347 q 680 442 588 347 q 772 674 772 536 q 668 913 772 819 q 410 1006 564 1006 q 161 911 254 1006 q 68 679 68 817 q 172 440 68 533 m 649 506 l 683 506 l 683 488 l 499 488 l 382 671 l 382 506 l 433 506 l 433 488 l 189 488 l 189 506 l 236 506 l 236 846 l 183 885 l 428 885 q 622 785 622 885 q 522 682 622 706 l 649 506 m 382 867 l 382 682 q 453 706 433 683 q 472 783 472 728 q 401 867 472 867 l 382 867 z "},"¯":{"ha":696,"x_min":111,"x_max":585,"o":"m 111 825 l 111 944 l 585 944 l 585 825 l 111 825 z "},"°":{"ha":419,"x_min":14,"x_max":406,"o":"m 210 650 q 72 708 129 650 q 14 846 14 765 q 72 984 14 926 q 210 1042 129 1042 q 348 984 290 1042 q 406 846 406 926 q 349 707 406 764 q 210 650 292 650 m 210 683 q 323 731 276 683 q 369 846 369 778 q 323 960 369 913 q 210 1008 276 1008 q 97 960 144 1008 q 50 846 50 913 q 97 731 50 778 q 210 683 144 683 z "},"±":{"ha":833,"x_min":125,"x_max":708,"o":"m 431 476 l 708 476 l 708 449 l 431 449 l 431 171 l 403 171 l 403 449 l 125 449 l 125 476 l 403 476 l 403 754 l 431 754 l 431 476 m 125 54 l 125 82 l 708 82 l 708 54 l 125 54 z "},"²":{"ha":533,"x_min":14,"x_max":492,"o":"m 469 561 l 469 610 l 490 610 l 490 411 l 14 411 l 14 413 l 60 467 q 224 699 178 606 q 269 878 269 792 q 208 1008 269 1008 q 190 1006 199 1008 l 97 768 l 96 768 l 21 976 q 236 1028 124 1028 q 492 875 492 1028 q 430 742 492 803 q 164 561 368 682 l 469 561 z "},"³":{"ha":565,"x_min":25,"x_max":538,"o":"m 304 731 q 473 683 408 724 q 538 579 538 643 q 458 444 538 493 q 231 394 379 394 q 39 431 133 394 l 79 631 l 81 631 l 200 417 q 224 414 208 414 q 290 453 264 414 q 315 563 315 492 q 274 678 315 638 q 154 719 233 719 l 154 732 q 253 767 224 732 q 282 886 282 801 q 219 1008 282 1008 q 200 1006 208 1008 l 107 793 l 106 793 l 25 974 q 253 1028 136 1028 q 434 988 365 1028 q 503 886 503 949 q 447 787 503 829 q 304 731 392 744 z "},"´":{"ha":694,"x_min":176,"x_max":518,"o":"m 176 735 l 225 1026 l 518 1026 l 518 1025 l 178 735 l 176 735 z "},"¶":{"ha":800,"x_min":21,"x_max":772,"o":"m 486 -222 l 486 374 q 145 463 269 375 q 21 701 21 551 q 132 917 21 833 q 464 1000 243 1000 l 772 1000 l 649 925 l 649 -222 l 601 -222 l 601 967 l 533 967 l 533 -222 l 486 -222 z "},"·":{"ha":406,"x_min":93,"x_max":360,"o":"m 324 411 q 306 393 324 411 q 226 375 288 375 q 129 411 165 375 q 93 510 93 447 q 129 608 93 572 q 226 644 165 644 q 324 608 288 644 q 360 510 360 572 q 324 411 360 447 z "},"¸":{"ha":696,"x_min":196,"x_max":504,"o":"m 401 -82 q 476 -112 447 -82 q 504 -183 504 -142 q 458 -284 504 -246 q 347 -322 413 -322 q 196 -237 254 -322 l 197 -236 q 265 -257 228 -257 q 333 -235 307 -257 q 358 -175 358 -212 q 337 -131 358 -146 q 279 -126 315 -117 l 278 -125 l 365 6 l 393 6 l 317 -108 q 401 -82 354 -82 z "},"¹":{"ha":433,"x_min":14,"x_max":406,"o":"m 36 411 l 36 432 l 115 432 l 115 858 l 14 913 l 14 914 l 328 1032 l 328 432 l 406 432 l 406 411 l 36 411 z "},"º":{"ha":569,"x_min":31,"x_max":526,"o":"m 275 594 q 98 655 165 594 q 31 807 31 715 q 97 967 31 906 q 275 1028 163 1028 q 460 969 394 1028 q 526 818 526 910 q 458 653 526 711 q 275 594 390 594 m 374 625 q 410 668 410 625 q 324 863 410 726 q 185 999 239 999 q 150 957 150 999 q 236 759 150 893 q 374 625 322 625 z "},"»":{"ha":685,"x_min":35,"x_max":657,"o":"m 36 56 l 35 57 l 193 343 l 35 629 l 36 631 l 393 344 l 393 343 l 36 56 m 300 56 l 299 57 l 457 343 l 299 629 l 300 631 l 657 344 l 657 343 l 300 56 z "},"¼":{"ha":1089,"x_min":14,"x_max":1075,"o":"m 36 432 l 115 432 l 115 858 l 14 913 l 14 914 l 328 1032 l 328 432 l 406 432 l 406 411 l 36 411 l 36 432 m 800 1000 l 857 1000 l 306 0 l 250 0 l 800 1000 m 1075 126 l 996 126 l 996 22 l 1065 22 l 1065 1 l 736 1 l 736 22 l 783 22 l 783 126 l 551 126 l 551 143 q 670 335 617 197 q 733 601 724 474 l 1006 601 q 857 376 956 482 q 582 149 758 271 l 783 149 l 783 258 l 996 319 l 996 149 l 1075 149 l 1075 126 z "},"½":{"ha":1183,"x_min":14,"x_max":1142,"o":"m 36 432 l 115 432 l 115 858 l 14 913 l 14 914 l 328 1032 l 328 432 l 406 432 l 406 411 l 36 411 l 36 432 m 799 1000 l 856 1000 l 304 0 l 249 0 l 799 1000 m 1119 150 l 1119 199 l 1140 199 l 1140 0 l 664 0 l 664 1 l 710 56 q 874 288 828 194 q 919 467 919 381 q 858 597 919 597 q 840 594 849 597 l 747 357 l 746 357 l 671 565 q 886 617 774 617 q 1142 464 1142 617 q 1080 331 1142 392 q 814 150 1018 271 l 1119 150 z "},"¾":{"ha":1167,"x_min":25,"x_max":1153,"o":"m 538 579 q 458 444 538 493 q 231 394 379 394 q 39 431 133 394 l 79 631 l 81 631 l 200 417 q 224 414 208 414 q 290 453 264 414 q 315 563 315 492 q 274 678 315 638 q 154 719 233 719 l 154 732 q 253 767 224 732 q 282 886 282 801 q 219 1008 282 1008 q 200 1006 208 1008 l 107 793 l 106 793 l 25 974 q 253 1028 136 1028 q 434 988 365 1028 q 503 886 503 949 q 447 787 503 829 q 304 731 392 744 q 473 683 408 724 q 538 579 538 643 m 882 1000 l 939 1000 l 388 0 l 332 0 l 882 1000 m 1153 125 l 1074 125 l 1074 21 l 1143 21 l 1143 0 l 814 0 l 814 21 l 861 21 l 861 125 l 629 125 l 629 142 q 748 334 694 196 q 811 600 801 472 l 1083 600 q 935 375 1033 481 q 660 147 836 269 l 861 147 l 861 257 l 1074 318 l 1074 147 l 1153 147 l 1153 125 z "},"¿":{"ha":750,"x_min":14,"x_max":708,"o":"m 278 986 q 296 1004 278 986 q 375 1022 314 1022 q 472 986 436 1022 q 508 888 508 950 q 472 789 508 825 q 375 753 436 753 q 278 789 314 753 q 242 888 242 825 q 278 986 242 950 m 447 633 l 449 632 q 356 414 379 506 q 333 193 333 322 q 411 0 333 0 q 436 4 425 0 l 585 390 l 586 390 l 708 64 q 386 -26 558 -26 q 113 42 211 -26 q 14 229 14 110 q 113 444 14 350 q 447 633 211 539 z "},"À":{"ha":1075,"x_min":0,"x_max":1075,"o":"m 643 1063 l 642 1063 l 217 1289 l 217 1290 l 543 1290 l 643 1063 m 1011 22 l 1075 22 l 1075 0 l 564 0 l 564 22 l 678 22 l 568 283 l 249 283 l 164 22 l 307 22 l 307 0 l 0 0 l 0 22 l 57 22 l 499 1028 l 571 1028 l 1011 22 m 256 308 l 557 308 l 386 711 l 256 308 z "},"Á":{"ha":1075,"x_min":0,"x_max":1075,"o":"m 836 1289 l 414 1063 l 413 1063 l 513 1290 l 836 1290 l 836 1289 m 1011 22 l 1075 22 l 1075 0 l 564 0 l 564 22 l 678 22 l 568 283 l 249 283 l 164 22 l 307 22 l 307 0 l 0 0 l 0 22 l 57 22 l 499 1028 l 571 1028 l 1011 22 m 256 308 l 557 308 l 386 711 l 256 308 z "},"Â":{"ha":1075,"x_min":0,"x_max":1075,"o":"m 538 1139 l 275 1051 l 274 1053 l 457 1301 l 615 1301 l 800 1053 l 799 1051 l 538 1139 m 1011 22 l 1075 22 l 1075 0 l 564 0 l 564 22 l 678 22 l 568 283 l 249 283 l 164 22 l 307 22 l 307 0 l 0 0 l 0 22 l 57 22 l 499 1028 l 571 1028 l 1011 22 m 256 308 l 557 308 l 386 711 l 256 308 z "},"Ã":{"ha":1075,"x_min":0,"x_max":1075,"o":"m 431 1085 q 322 1149 356 1085 q 300 1335 289 1214 l 304 1335 q 404 1258 317 1258 q 514 1294 439 1258 q 638 1331 589 1331 q 771 1081 790 1331 l 767 1081 q 665 1157 754 1157 q 556 1121 631 1157 q 431 1085 481 1085 m 1011 22 l 1075 22 l 1075 0 l 564 0 l 564 22 l 678 22 l 568 283 l 249 283 l 164 22 l 307 22 l 307 0 l 0 0 l 0 22 l 57 22 l 499 1028 l 571 1028 l 1011 22 m 256 308 l 557 308 l 386 711 l 256 308 z "},"Ä":{"ha":1075,"x_min":0,"x_max":1075,"o":"m 475 1116 q 458 1097 475 1116 q 381 1078 440 1078 q 286 1116 321 1078 q 251 1215 251 1154 q 286 1314 251 1275 q 381 1353 321 1353 q 475 1314 440 1353 q 510 1215 510 1275 q 475 1116 510 1154 m 788 1116 q 770 1097 788 1116 q 693 1078 753 1078 q 599 1116 633 1078 q 564 1215 564 1154 q 599 1314 564 1275 q 693 1353 633 1353 q 788 1314 753 1353 q 822 1215 822 1275 q 788 1116 822 1154 m 1011 22 l 1075 22 l 1075 0 l 564 0 l 564 22 l 678 22 l 568 283 l 249 283 l 164 22 l 307 22 l 307 0 l 0 0 l 0 22 l 57 22 l 499 1028 l 571 1028 l 1011 22 m 256 308 l 557 308 l 386 711 l 256 308 z "},"Å":{"ha":1075,"x_min":0,"x_max":1075,"o":"m 536 1063 q 415 1106 460 1063 q 371 1218 371 1150 q 416 1328 371 1285 q 536 1372 461 1372 q 656 1328 608 1372 q 704 1218 704 1283 q 658 1107 704 1151 q 536 1063 611 1063 m 467 1342 q 488 1190 418 1314 q 606 1092 558 1064 q 583 1246 656 1118 q 467 1342 515 1367 m 1011 22 l 1075 22 l 1075 0 l 564 0 l 564 22 l 678 22 l 568 283 l 249 283 l 164 22 l 307 22 l 307 0 l 0 0 l 0 22 l 57 22 l 499 1028 l 571 1028 l 1011 22 m 256 308 l 557 308 l 386 711 l 256 308 z "},"Æ":{"ha":1488,"x_min":0,"x_max":1404,"o":"m 1403 653 q 1202 901 1308 826 q 968 978 1096 976 l 968 533 q 1100 587 1035 536 q 1204 717 1165 638 l 1206 717 l 1206 329 l 1204 329 q 1101 460 1165 410 q 968 514 1036 511 l 968 22 q 1203 99 1097 25 q 1403 347 1308 174 l 1404 347 l 1404 0 l 538 0 l 538 22 l 663 22 l 663 400 l 376 400 l 176 22 l 296 22 l 296 0 l 0 0 l 0 22 l 71 22 l 619 926 l 479 1000 l 1404 1000 l 1404 653 l 1403 653 m 389 424 l 663 424 l 663 925 l 656 925 l 389 424 z "},"Ç":{"ha":978,"x_min":42,"x_max":957,"o":"m 571 -28 q 504 -25 549 -28 l 449 -108 q 533 -82 486 -82 q 608 -112 579 -82 q 636 -183 636 -142 q 590 -284 636 -246 q 479 -322 544 -322 q 328 -237 386 -322 l 329 -236 q 397 -257 360 -257 q 465 -235 439 -257 q 490 -175 490 -212 q 469 -131 490 -146 q 411 -126 447 -117 l 410 -125 l 479 -21 q 160 160 279 10 q 42 533 42 311 q 180 892 42 757 q 546 1028 318 1028 q 910 943 747 1028 l 788 458 l 786 458 q 605 772 685 657 q 472 925 525 886 q 365 964 418 964 q 287 924 317 964 q 257 806 257 885 q 307 556 257 676 q 438 350 357 436 q 626 213 519 264 q 842 161 732 161 q 956 179 918 161 l 957 178 q 800 29 906 86 q 571 -28 694 -28 z "},"È":{"ha":976,"x_min":28,"x_max":893,"o":"m 626 1063 l 625 1063 l 200 1289 l 200 1290 l 526 1290 l 626 1063 m 892 653 q 691 901 797 826 q 457 978 585 976 l 457 533 q 589 587 524 536 q 693 717 654 638 l 694 717 l 694 329 l 693 329 q 590 460 654 410 q 457 514 525 511 l 457 22 q 692 99 586 25 q 892 347 797 174 l 893 347 l 893 0 l 40 0 l 40 22 l 151 22 l 151 925 l 28 1000 l 893 1000 l 893 653 l 892 653 z "},"É":{"ha":976,"x_min":28,"x_max":893,"o":"m 819 1289 l 397 1063 l 396 1063 l 496 1290 l 819 1290 l 819 1289 m 892 653 q 691 901 797 826 q 457 978 585 976 l 457 533 q 589 587 524 536 q 693 717 654 638 l 694 717 l 694 329 l 693 329 q 590 460 654 410 q 457 514 525 511 l 457 22 q 692 99 586 25 q 892 347 797 174 l 893 347 l 893 0 l 40 0 l 40 22 l 151 22 l 151 925 l 28 1000 l 893 1000 l 893 653 l 892 653 z "},"Ê":{"ha":976,"x_min":28,"x_max":893,"o":"m 521 1139 l 258 1051 l 257 1053 l 440 1301 l 599 1301 l 783 1053 l 782 1051 l 521 1139 m 892 653 q 691 901 797 826 q 457 978 585 976 l 457 533 q 589 587 524 536 q 693 717 654 638 l 694 717 l 694 329 l 693 329 q 590 460 654 410 q 457 514 525 511 l 457 22 q 692 99 586 25 q 892 347 797 174 l 893 347 l 893 0 l 40 0 l 40 22 l 151 22 l 151 925 l 28 1000 l 893 1000 l 893 653 l 892 653 z "},"Ë":{"ha":976,"x_min":28,"x_max":893,"o":"m 458 1116 q 441 1097 458 1116 q 364 1078 424 1078 q 269 1116 304 1078 q 235 1215 235 1154 q 269 1314 235 1275 q 364 1353 304 1353 q 458 1314 424 1353 q 493 1215 493 1275 q 458 1116 493 1154 m 771 1116 q 753 1097 771 1116 q 676 1078 736 1078 q 582 1116 617 1078 q 547 1215 547 1154 q 582 1314 547 1275 q 676 1353 617 1353 q 771 1314 736 1353 q 806 1215 806 1275 q 771 1116 806 1154 m 892 653 q 691 901 797 826 q 457 978 585 976 l 457 533 q 589 587 524 536 q 693 717 654 638 l 694 717 l 694 329 l 693 329 q 590 460 654 410 q 457 514 525 511 l 457 22 q 692 99 586 25 q 892 347 797 174 l 893 347 l 893 0 l 40 0 l 40 22 l 151 22 l 151 925 l 28 1000 l 893 1000 l 893 653 l 892 653 z "},"Ì":{"ha":608,"x_min":-15,"x_max":581,"o":"m 410 1063 l -15 1289 l -15 1290 l 311 1290 l 411 1063 l 410 1063 m 40 0 l 40 22 l 151 22 l 151 925 l 28 1000 l 581 1000 l 457 925 l 457 22 l 568 22 l 568 0 l 40 0 z "},"Í":{"ha":608,"x_min":28,"x_max":604,"o":"m 181 1063 l 281 1290 l 604 1290 l 604 1289 l 182 1063 l 181 1063 m 40 0 l 40 22 l 151 22 l 151 925 l 28 1000 l 581 1000 l 457 925 l 457 22 l 568 22 l 568 0 l 40 0 z "},"Î":{"ha":608,"x_min":28,"x_max":581,"o":"m 306 1139 l 43 1051 l 42 1053 l 225 1301 l 383 1301 l 568 1053 l 567 1051 l 306 1139 m 457 925 l 457 22 l 568 22 l 568 0 l 40 0 l 40 22 l 151 22 l 151 925 l 28 1000 l 581 1000 l 457 925 z "},"Ï":{"ha":608,"x_min":19,"x_max":590,"o":"m 243 1116 q 226 1097 243 1116 q 149 1078 208 1078 q 54 1116 89 1078 q 19 1215 19 1154 q 54 1314 19 1275 q 149 1353 89 1353 q 243 1314 208 1353 q 278 1215 278 1275 q 243 1116 278 1154 m 556 1116 q 538 1097 556 1116 q 461 1078 521 1078 q 367 1116 401 1078 q 332 1215 332 1154 q 367 1314 332 1275 q 461 1353 401 1353 q 556 1314 521 1353 q 590 1215 590 1275 q 556 1116 590 1154 m 40 0 l 40 22 l 151 22 l 151 925 l 28 1000 l 581 1000 l 457 925 l 457 22 l 568 22 l 568 0 l 40 0 z "},"Ð":{"ha":1138,"x_min":28,"x_max":1096,"o":"m 518 1000 q 945 874 794 1000 q 1096 513 1096 749 q 937 134 1096 268 q 500 0 778 0 l 40 0 l 40 22 l 151 22 l 151 506 l 40 506 l 40 529 l 151 529 l 151 925 l 28 1000 l 518 1000 m 479 22 q 696 152 615 22 q 776 511 776 282 q 703 858 776 738 q 492 978 629 978 l 457 978 l 457 529 l 624 529 l 624 506 l 457 506 l 457 22 l 479 22 z "},"Ñ":{"ha":1106,"x_min":21,"x_max":1092,"o":"m 456 1085 q 347 1149 381 1085 q 325 1335 314 1214 l 329 1335 q 429 1258 342 1258 q 539 1294 464 1258 q 663 1331 614 1331 q 796 1081 815 1331 l 792 1081 q 690 1157 779 1157 q 581 1121 656 1157 q 456 1085 506 1085 m 736 1000 l 1092 1000 l 967 928 l 967 0 l 894 0 l 182 839 l 238 22 l 406 22 l 406 0 l 56 0 l 56 22 l 132 22 l 154 919 l 21 1000 l 444 1000 l 939 394 l 861 928 l 736 1000 z "},"Ò":{"ha":1115,"x_min":42,"x_max":1074,"o":"m 649 1063 l 224 1289 l 224 1290 l 550 1290 l 650 1063 l 649 1063 m 574 -28 q 194 124 346 -28 q 42 504 42 275 q 99 760 42 643 q 274 953 157 878 q 543 1028 390 1028 q 922 876 771 1028 q 1074 496 1074 724 q 1017 240 1074 357 q 843 47 960 122 q 574 -28 726 -28 m 764 50 q 858 168 858 50 q 774 499 858 313 q 568 818 689 686 q 351 950 447 950 q 283 919 308 950 q 258 832 258 889 q 311 584 258 724 q 439 328 364 444 q 604 131 514 211 q 764 50 694 50 z "},"Ó":{"ha":1115,"x_min":42,"x_max":1074,"o":"m 419 1063 l 519 1290 l 843 1290 l 843 1289 l 421 1063 l 419 1063 m 574 -28 q 194 124 346 -28 q 42 504 42 275 q 99 760 42 643 q 274 953 157 878 q 543 1028 390 1028 q 922 876 771 1028 q 1074 496 1074 724 q 1017 240 1074 357 q 843 47 960 122 q 574 -28 726 -28 m 764 50 q 858 168 858 50 q 774 499 858 313 q 568 818 689 686 q 351 950 447 950 q 283 919 308 950 q 258 832 258 889 q 311 584 258 724 q 439 328 364 444 q 604 131 514 211 q 764 50 694 50 z "},"Ô":{"ha":1115,"x_min":42,"x_max":1074,"o":"m 544 1139 l 282 1051 l 281 1053 l 464 1301 l 622 1301 l 807 1053 l 806 1051 l 544 1139 m 543 1028 q 922 876 771 1028 q 1074 496 1074 724 q 1017 240 1074 357 q 843 47 960 122 q 574 -28 726 -28 q 194 124 346 -28 q 42 504 42 275 q 99 760 42 643 q 274 953 157 878 q 543 1028 390 1028 m 764 50 q 858 168 858 50 q 774 499 858 313 q 568 818 689 686 q 351 950 447 950 q 283 919 308 950 q 258 832 258 889 q 311 584 258 724 q 439 328 364 444 q 604 131 514 211 q 764 50 694 50 z "},"Õ":{"ha":1115,"x_min":42,"x_max":1074,"o":"m 774 1081 q 672 1157 761 1157 q 563 1121 638 1157 q 438 1085 488 1085 q 329 1149 363 1085 q 307 1335 296 1214 l 311 1335 q 411 1258 324 1258 q 521 1294 446 1258 q 644 1331 596 1331 q 778 1081 797 1331 l 774 1081 m 574 -28 q 194 124 346 -28 q 42 504 42 275 q 99 760 42 643 q 274 953 157 878 q 543 1028 390 1028 q 922 876 771 1028 q 1074 496 1074 724 q 1017 240 1074 357 q 843 47 960 122 q 574 -28 726 -28 m 764 50 q 858 168 858 50 q 774 499 858 313 q 568 818 689 686 q 351 950 447 950 q 283 919 308 950 q 258 832 258 889 q 311 584 258 724 q 439 328 364 444 q 604 131 514 211 q 764 50 694 50 z "},"Ö":{"ha":1115,"x_min":42,"x_max":1074,"o":"m 482 1116 q 465 1097 482 1116 q 388 1078 447 1078 q 293 1116 328 1078 q 258 1215 258 1154 q 293 1314 258 1275 q 388 1353 328 1353 q 482 1314 447 1353 q 517 1215 517 1275 q 482 1116 517 1154 m 794 1116 q 777 1097 794 1116 q 700 1078 760 1078 q 606 1116 640 1078 q 571 1215 571 1154 q 606 1314 571 1275 q 700 1353 640 1353 q 794 1314 760 1353 q 829 1215 829 1275 q 794 1116 829 1154 m 574 -28 q 194 124 346 -28 q 42 504 42 275 q 99 760 42 643 q 274 953 157 878 q 543 1028 390 1028 q 922 876 771 1028 q 1074 496 1074 724 q 1017 240 1074 357 q 843 47 960 122 q 574 -28 726 -28 m 764 50 q 858 168 858 50 q 774 499 858 313 q 568 818 689 686 q 351 950 447 950 q 283 919 308 950 q 258 832 258 889 q 311 584 258 724 q 439 328 364 444 q 604 131 514 211 q 764 50 694 50 z "},"×":{"ha":811,"x_min":125,"x_max":686,"o":"m 686 722 l 426 463 l 686 203 l 665 182 l 406 442 l 146 182 l 125 203 l 385 463 l 125 722 l 146 743 l 406 483 l 665 743 l 686 722 z "},"Ø":{"ha":1117,"x_min":42,"x_max":1075,"o":"m 1075 1000 l 938 861 q 1074 496 1074 710 q 1017 240 1074 357 q 843 47 960 122 q 574 -28 726 -28 q 201 117 353 -28 l 85 0 l 42 0 l 179 139 q 42 504 42 288 q 99 760 42 643 q 274 953 157 878 q 543 1028 390 1028 q 915 882 765 1028 l 1032 1000 l 1075 1000 m 258 832 q 411 374 258 633 l 690 654 q 517 867 608 785 q 351 950 425 950 q 283 919 308 950 q 258 832 258 889 m 858 168 q 706 628 858 369 l 428 347 q 601 133 510 217 q 764 50 692 50 q 858 168 858 50 z "},"Ù":{"ha":1088,"x_min":7,"x_max":1088,"o":"m 738 1063 l 313 1289 l 313 1290 l 639 1290 l 739 1063 l 738 1063 m 582 -28 q 236 78 342 -28 q 131 411 131 185 l 131 926 l 7 1000 l 560 1000 l 436 926 l 436 392 q 492 101 436 186 q 661 15 547 15 q 836 107 781 15 q 882 397 892 199 l 858 926 l 693 1000 l 1088 1000 l 964 926 l 939 353 q 850 55 929 138 q 582 -28 771 -28 z "},"Ú":{"ha":1088,"x_min":7,"x_max":1088,"o":"m 508 1063 l 608 1290 l 932 1290 l 932 1289 l 510 1063 l 508 1063 m 582 -28 q 236 78 342 -28 q 131 411 131 185 l 131 926 l 7 1000 l 560 1000 l 436 926 l 436 392 q 492 101 436 186 q 661 15 547 15 q 836 107 781 15 q 882 397 892 199 l 858 926 l 693 1000 l 1088 1000 l 964 926 l 939 353 q 850 55 929 138 q 582 -28 771 -28 z "},"Û":{"ha":1088,"x_min":7,"x_max":1088,"o":"m 633 1139 l 371 1051 l 369 1053 l 553 1301 l 711 1301 l 896 1053 l 894 1051 l 633 1139 m 693 1000 l 1088 1000 l 964 926 l 939 353 q 850 55 929 138 q 582 -28 771 -28 q 236 78 342 -28 q 131 411 131 185 l 131 926 l 7 1000 l 560 1000 l 436 926 l 436 392 q 492 101 436 186 q 661 15 547 15 q 836 107 781 15 q 882 397 892 199 l 858 926 l 693 1000 z "},"Ü":{"ha":1088,"x_min":7,"x_max":1088,"o":"m 571 1116 q 553 1097 571 1116 q 476 1078 536 1078 q 382 1116 417 1078 q 347 1215 347 1154 q 382 1314 347 1275 q 476 1353 417 1353 q 571 1314 536 1353 q 606 1215 606 1275 q 571 1116 606 1154 m 883 1116 q 866 1097 883 1116 q 789 1078 849 1078 q 694 1116 729 1078 q 660 1215 660 1154 q 694 1314 660 1275 q 789 1353 729 1353 q 883 1314 849 1353 q 918 1215 918 1275 q 883 1116 918 1154 m 582 -28 q 236 78 342 -28 q 131 411 131 185 l 131 926 l 7 1000 l 560 1000 l 436 926 l 436 392 q 492 101 436 186 q 661 15 547 15 q 836 107 781 15 q 882 397 892 199 l 858 926 l 693 1000 l 1088 1000 l 964 926 l 939 353 q 850 55 929 138 q 582 -28 771 -28 z "},"Ý":{"ha":1113,"x_min":0,"x_max":1113,"o":"m 961 1289 l 539 1063 l 538 1063 l 638 1290 l 961 1290 l 961 1289 m 989 925 l 719 394 l 719 22 l 831 22 l 831 0 l 303 0 l 303 22 l 414 22 l 414 314 l 110 925 l 0 1000 l 568 1000 l 444 925 l 701 411 l 868 925 l 717 1000 l 1113 1000 l 989 925 z "},"Þ":{"ha":1000,"x_min":28,"x_max":979,"o":"m 979 514 q 844 272 979 356 q 457 186 710 189 l 457 22 l 568 22 l 568 0 l 40 0 l 40 22 l 151 22 l 151 925 l 28 1000 l 581 1000 l 457 925 l 457 813 l 481 813 q 853 731 728 813 q 979 514 979 649 m 474 790 l 457 790 l 457 208 q 605 290 550 210 q 660 513 660 371 q 609 718 660 646 q 474 790 558 790 z "},"ß":{"ha":1003,"x_min":17,"x_max":961,"o":"m 817 436 q 961 219 961 344 q 883 53 961 119 q 688 -14 804 -14 q 450 40 557 -14 l 488 264 l 489 264 l 640 19 q 682 13 663 13 q 750 35 725 13 q 775 100 775 58 q 759 149 775 129 q 700 203 743 169 l 618 268 q 481 489 481 378 q 560 658 481 588 q 608 722 594 690 q 621 810 621 753 q 587 958 621 900 q 494 1015 553 1015 q 407 967 436 1015 q 378 804 378 918 l 378 0 l 31 0 l 31 22 l 100 22 l 100 635 l 100 658 l 17 658 l 17 681 l 101 681 q 213 953 113 864 q 490 1042 314 1042 q 735 992 646 1042 q 824 869 824 943 q 794 798 824 826 q 708 744 764 769 q 632 703 651 718 q 597 642 597 676 q 729 492 597 575 l 817 436 z "},"à":{"ha":760,"x_min":21,"x_max":735,"o":"m 483 736 l 482 736 l 142 1026 l 142 1028 l 435 1028 l 483 736 m 665 22 l 735 22 l 735 0 l 388 0 l 388 79 q 172 -14 278 -14 q 63 23 104 -14 q 21 125 21 60 q 117 282 21 221 q 388 363 214 343 q 344 533 388 475 q 221 592 301 592 q 68 539 138 592 l 61 546 q 397 708 207 708 q 665 407 665 708 l 665 22 m 356 94 q 388 99 369 94 l 388 344 q 272 194 272 311 q 356 94 272 94 z "},"á":{"ha":760,"x_min":21,"x_max":735,"o":"m 664 1025 l 324 735 l 322 735 l 371 1026 l 664 1026 l 664 1025 m 665 22 l 735 22 l 735 0 l 388 0 l 388 79 q 172 -14 278 -14 q 63 23 104 -14 q 21 125 21 60 q 117 282 21 221 q 388 363 214 343 q 344 533 388 475 q 221 592 301 592 q 68 539 138 592 l 61 546 q 397 708 207 708 q 665 407 665 708 l 665 22 m 356 94 q 388 99 369 94 l 388 344 q 272 194 272 311 q 356 94 272 94 z "},"â":{"ha":760,"x_min":21,"x_max":735,"o":"m 397 869 l 135 725 l 133 726 l 317 1039 l 475 1039 l 660 726 l 658 725 l 397 869 m 665 22 l 735 22 l 735 0 l 388 0 l 388 79 q 172 -14 278 -14 q 63 23 104 -14 q 21 125 21 60 q 117 282 21 221 q 388 363 214 343 q 344 533 388 475 q 221 592 301 592 q 68 539 138 592 l 61 546 q 397 708 207 708 q 665 407 665 708 l 665 22 m 356 94 q 388 99 369 94 l 388 344 q 272 194 272 311 q 356 94 272 94 z "},"ã":{"ha":760,"x_min":21,"x_max":735,"o":"m 292 758 q 183 827 217 758 q 161 1022 150 896 l 165 1022 q 265 932 181 932 q 375 968 300 932 q 499 1004 450 1004 q 609 935 575 1004 q 632 740 643 867 l 628 740 q 526 831 613 831 q 417 794 492 831 q 292 758 342 758 m 665 22 l 735 22 l 735 0 l 388 0 l 388 79 q 172 -14 278 -14 q 63 23 104 -14 q 21 125 21 60 q 117 282 21 221 q 388 363 214 343 q 344 533 388 475 q 221 592 301 592 q 68 539 138 592 l 61 546 q 397 708 207 708 q 665 407 665 708 l 665 22 m 356 94 q 388 99 369 94 l 388 344 q 272 194 272 311 q 356 94 272 94 z "},"ä":{"ha":760,"x_min":21,"x_max":735,"o":"m 335 797 q 317 777 335 797 q 240 758 300 758 q 146 797 181 758 q 111 896 111 835 q 146 994 111 956 q 240 1033 181 1033 q 335 994 300 1033 q 369 896 369 956 q 335 797 369 835 m 647 797 q 630 777 647 797 q 553 758 613 758 q 458 797 493 758 q 424 896 424 835 q 458 994 424 956 q 553 1033 493 1033 q 647 994 613 1033 q 682 896 682 956 q 647 797 682 835 m 665 22 l 735 22 l 735 0 l 388 0 l 388 79 q 172 -14 278 -14 q 63 23 104 -14 q 21 125 21 60 q 117 282 21 221 q 388 363 214 343 q 344 533 388 475 q 221 592 301 592 q 68 539 138 592 l 61 546 q 397 708 207 708 q 665 407 665 708 l 665 22 m 356 94 q 388 99 369 94 l 388 344 q 272 194 272 311 q 356 94 272 94 z "},"å":{"ha":760,"x_min":21,"x_max":735,"o":"m 396 746 q 275 790 319 746 q 231 901 231 833 q 276 1012 231 968 q 396 1056 321 1056 q 516 1011 468 1056 q 564 901 564 967 q 517 790 564 835 q 396 746 471 746 m 326 1025 q 347 874 278 997 q 465 775 418 747 q 443 929 515 801 q 326 1025 375 1050 m 665 22 l 735 22 l 735 0 l 388 0 l 388 79 q 172 -14 278 -14 q 63 23 104 -14 q 21 125 21 60 q 117 282 21 221 q 388 363 214 343 q 344 533 388 475 q 221 592 301 592 q 68 539 138 592 l 61 546 q 397 708 207 708 q 665 407 665 708 l 665 22 m 356 94 q 388 99 369 94 l 388 344 q 272 194 272 311 q 356 94 272 94 z "},"æ":{"ha":1035,"x_min":17,"x_max":1021,"o":"m 1019 126 l 1021 125 q 740 -14 929 -14 q 576 22 651 -14 q 451 122 500 57 q 315 24 393 61 q 168 -14 238 -14 q 58 23 100 -14 q 17 125 17 60 q 113 282 17 221 q 383 363 210 343 q 340 533 383 475 q 217 592 297 592 q 64 539 133 592 l 57 546 q 393 708 203 708 q 558 664 494 708 q 742 708 640 708 q 901 658 839 708 q 963 531 963 607 q 897 370 963 443 q 707 251 831 297 q 979 122 839 122 q 1019 126 1000 122 m 613 660 q 556 578 556 660 q 594 410 556 494 q 699 260 633 326 q 753 436 753 329 q 706 591 753 522 q 613 660 660 660 m 350 94 q 444 132 392 94 q 383 338 383 219 l 383 344 q 268 194 268 311 q 350 94 268 94 z "},"ç":{"ha":721,"x_min":47,"x_max":685,"o":"m 685 124 q 432 -12 600 -1 l 368 -108 q 453 -82 406 -82 q 527 -112 499 -82 q 556 -183 556 -142 q 510 -284 556 -246 q 399 -322 464 -322 q 247 -237 306 -322 l 249 -236 q 317 -257 279 -257 q 384 -235 358 -257 q 410 -175 410 -212 q 388 -131 410 -146 q 331 -126 367 -117 l 329 -125 l 404 -14 l 397 -14 q 149 82 250 -14 q 49 333 47 178 q 155 600 50 492 q 432 708 260 708 q 671 664 550 708 l 617 276 l 615 276 q 432 556 519 458 q 282 654 344 654 q 226 579 226 654 q 360 266 226 413 q 642 119 494 119 q 683 125 667 119 l 685 124 z "},"è":{"ha":700,"x_min":49,"x_max":686,"o":"m 451 736 l 450 736 l 110 1026 l 110 1028 l 403 1028 l 451 736 m 685 126 l 686 125 q 406 -14 594 -14 q 151 83 254 -14 q 49 338 49 181 q 147 601 49 494 q 407 708 244 708 q 566 658 504 708 q 628 531 628 607 q 562 370 628 443 q 372 251 496 297 q 644 122 504 122 q 685 126 665 122 m 278 660 q 221 578 221 660 q 260 410 221 494 q 364 260 299 326 q 418 436 418 329 q 372 591 418 522 q 278 660 325 660 z "},"é":{"ha":700,"x_min":49,"x_max":686,"o":"m 632 1025 l 292 735 l 290 735 l 339 1026 l 632 1026 l 632 1025 m 685 126 l 686 125 q 406 -14 594 -14 q 151 83 254 -14 q 49 338 49 181 q 147 601 49 494 q 407 708 244 708 q 566 658 504 708 q 628 531 628 607 q 562 370 628 443 q 372 251 496 297 q 644 122 504 122 q 685 126 665 122 m 278 660 q 221 578 221 660 q 260 410 221 494 q 364 260 299 326 q 418 436 418 329 q 372 591 418 522 q 278 660 325 660 z "},"ê":{"ha":700,"x_min":49,"x_max":686,"o":"m 365 869 l 103 725 l 101 726 l 285 1039 l 443 1039 l 628 726 l 626 725 l 365 869 m 685 126 l 686 125 q 406 -14 594 -14 q 151 83 254 -14 q 49 338 49 181 q 147 601 49 494 q 407 708 244 708 q 566 658 504 708 q 628 531 628 607 q 562 370 628 443 q 372 251 496 297 q 644 122 504 122 q 685 126 665 122 m 278 660 q 221 578 221 660 q 260 410 221 494 q 364 260 299 326 q 418 436 418 329 q 372 591 418 522 q 278 660 325 660 z "},"ë":{"ha":700,"x_min":49,"x_max":686,"o":"m 303 797 q 285 777 303 797 q 208 758 268 758 q 114 797 149 758 q 79 896 79 835 q 114 994 79 956 q 208 1033 149 1033 q 303 994 268 1033 q 338 896 338 956 q 303 797 338 835 m 615 797 q 598 777 615 797 q 521 758 581 758 q 426 797 461 758 q 392 896 392 835 q 426 994 392 956 q 521 1033 461 1033 q 615 994 581 1033 q 650 896 650 956 q 615 797 650 835 m 685 126 l 686 125 q 406 -14 594 -14 q 151 83 254 -14 q 49 338 49 181 q 147 601 49 494 q 407 708 244 708 q 566 658 504 708 q 628 531 628 607 q 562 370 628 443 q 372 251 496 297 q 644 122 504 122 q 685 126 665 122 m 278 660 q 221 578 221 660 q 260 410 221 494 q 364 260 299 326 q 418 436 418 329 q 372 591 418 522 q 278 660 325 660 z "},"ì":{"ha":468,"x_min":-19,"x_max":443,"o":"m 321 736 l -19 1026 l -19 1028 l 274 1028 l 322 736 l 321 736 m 26 0 l 26 22 l 96 22 l 96 529 l 17 597 l 374 722 l 374 22 l 443 22 l 443 0 l 26 0 z "},"í":{"ha":468,"x_min":17,"x_max":503,"o":"m 161 735 l 210 1026 l 503 1026 l 503 1025 l 163 735 l 161 735 m 26 0 l 26 22 l 96 22 l 96 529 l 17 597 l 374 722 l 374 22 l 443 22 l 443 0 l 26 0 z "},"î":{"ha":468,"x_min":-28,"x_max":499,"o":"m 314 1039 l 499 726 l 497 725 l 236 869 l -26 725 l -28 726 l 156 1039 l 314 1039 m 374 722 l 374 22 l 443 22 l 443 0 l 26 0 l 26 22 l 96 22 l 96 529 l 17 597 l 374 722 z "},"ï":{"ha":468,"x_min":-50,"x_max":521,"o":"m 174 797 q 156 777 174 797 q 79 758 139 758 q -15 797 19 758 q -50 896 -50 835 q -15 994 -50 956 q 79 1033 19 1033 q 174 994 139 1033 q 208 896 208 956 q 174 797 208 835 m 486 797 q 469 777 486 797 q 392 758 451 758 q 297 797 332 758 q 263 896 263 835 q 297 994 263 956 q 392 1033 332 1033 q 486 994 451 1033 q 521 896 521 956 q 486 797 521 835 m 26 0 l 26 22 l 96 22 l 96 529 l 17 597 l 374 722 l 374 22 l 443 22 l 443 0 l 26 0 z "},"ð":{"ha":872,"x_min":24,"x_max":824,"o":"m 504 963 q 738 740 653 883 q 824 419 824 596 q 729 99 824 211 q 451 -14 635 -14 q 161 98 274 -14 q 49 388 49 210 q 142 622 49 535 q 340 708 236 708 q 447 681 389 708 q 335 878 394 810 l 165 794 l 157 813 l 321 893 q 24 1001 218 996 l 24 1022 q 181 1040 111 1040 q 482 974 346 1040 l 649 1056 l 657 1038 l 504 963 m 590 44 q 642 167 674 44 q 542 447 611 283 q 468 631 535 464 q 344 671 403 671 q 282 596 282 671 q 331 397 283 515 q 438 182 378 278 q 517 77 483 110 q 590 44 551 44 z "},"ñ":{"ha":913,"x_min":17,"x_max":888,"o":"m 367 758 q 258 827 292 758 q 236 1022 225 896 l 240 1022 q 340 932 256 932 q 450 968 375 932 q 574 1004 525 1004 q 684 935 650 1004 q 707 740 718 867 l 703 740 q 601 831 688 831 q 492 794 567 831 q 367 758 417 758 m 818 22 l 888 22 l 888 0 l 485 0 l 485 22 l 540 22 l 540 440 q 521 552 540 519 q 457 585 501 585 q 374 564 419 585 l 374 22 l 429 22 l 429 0 l 26 0 l 26 22 l 96 22 l 96 529 l 17 597 l 374 722 l 374 583 q 512 682 450 649 q 639 715 574 715 q 818 500 818 715 l 818 22 z "},"ò":{"ha":874,"x_min":49,"x_max":825,"o":"m 522 736 l 182 1026 l 182 1028 l 475 1028 l 524 736 l 522 736 m 432 -14 q 163 88 276 -14 q 49 351 49 189 q 156 606 49 503 q 431 708 263 708 q 715 610 604 708 q 825 351 825 513 q 724 89 825 192 q 432 -14 622 -14 m 588 36 q 644 107 644 36 q 582 298 644 165 q 433 544 519 431 q 289 658 346 658 q 233 590 233 658 q 297 390 233 524 q 447 146 361 256 q 588 36 533 36 z "},"ó":{"ha":874,"x_min":49,"x_max":825,"o":"m 363 735 l 411 1026 l 704 1026 l 704 1025 l 364 735 l 363 735 m 432 -14 q 163 88 276 -14 q 49 351 49 189 q 156 606 49 503 q 431 708 263 708 q 715 610 604 708 q 825 351 825 513 q 724 89 825 192 q 432 -14 622 -14 m 588 36 q 644 107 644 36 q 582 298 644 165 q 433 544 519 431 q 289 658 346 658 q 233 590 233 658 q 297 390 233 524 q 447 146 361 256 q 588 36 533 36 z "},"ô":{"ha":874,"x_min":49,"x_max":825,"o":"m 438 869 l 175 725 l 174 726 l 357 1039 l 515 1039 l 700 726 l 699 725 l 438 869 m 431 708 q 715 610 604 708 q 825 351 825 513 q 724 89 825 192 q 432 -14 622 -14 q 163 88 276 -14 q 49 351 49 189 q 156 606 49 503 q 431 708 263 708 m 588 36 q 644 107 644 36 q 582 298 644 165 q 433 544 519 431 q 289 658 346 658 q 233 590 233 658 q 297 390 233 524 q 447 146 361 256 q 588 36 533 36 z "},"õ":{"ha":874,"x_min":49,"x_max":825,"o":"m 668 740 q 567 831 653 831 q 457 794 532 831 q 332 758 382 758 q 224 827 257 758 q 201 1022 190 896 l 206 1022 q 306 932 221 932 q 415 968 340 932 q 539 1004 490 1004 q 649 935 615 1004 q 672 740 683 867 l 668 740 m 432 -14 q 163 88 276 -14 q 49 351 49 189 q 156 606 49 503 q 431 708 263 708 q 715 610 604 708 q 825 351 825 513 q 724 89 825 192 q 432 -14 622 -14 m 588 36 q 644 107 644 36 q 582 298 644 165 q 433 544 519 431 q 289 658 346 658 q 233 590 233 658 q 297 390 233 524 q 447 146 361 256 q 588 36 533 36 z "},"ö":{"ha":874,"x_min":49,"x_max":825,"o":"m 375 797 q 358 777 375 797 q 281 758 340 758 q 186 797 221 758 q 151 896 151 835 q 186 994 151 956 q 281 1033 221 1033 q 375 994 340 1033 q 410 896 410 956 q 375 797 410 835 m 688 797 q 670 777 688 797 q 593 758 653 758 q 499 797 533 758 q 464 896 464 835 q 499 994 464 956 q 593 1033 533 1033 q 688 994 653 1033 q 722 896 722 956 q 688 797 722 835 m 432 -14 q 163 88 276 -14 q 49 351 49 189 q 156 606 49 503 q 431 708 263 708 q 715 610 604 708 q 825 351 825 513 q 724 89 825 192 q 432 -14 622 -14 m 588 36 q 644 107 644 36 q 582 298 644 165 q 433 544 519 431 q 289 658 346 658 q 233 590 233 658 q 297 390 233 524 q 447 146 361 256 q 588 36 533 36 z "},"÷":{"ha":833,"x_min":125,"x_max":708,"o":"m 496 568 q 481 553 496 568 q 418 539 467 539 q 340 568 369 539 q 311 647 311 597 q 340 726 311 697 q 418 756 369 756 q 496 726 467 756 q 525 647 525 697 q 496 568 525 597 m 125 449 l 125 476 l 708 476 l 708 449 l 125 449 m 496 201 q 481 187 496 201 q 418 172 467 172 q 340 201 369 172 q 311 281 311 231 q 340 360 311 331 q 418 389 369 389 q 496 360 467 389 q 525 281 525 331 q 496 201 525 231 z "},"ø":{"ha":850,"x_min":31,"x_max":825,"o":"m 717 610 q 825 351 825 510 q 724 89 825 192 q 432 -14 622 -14 q 160 90 272 -14 l 64 0 l 31 0 l 144 106 q 49 351 49 206 q 156 606 49 503 q 431 708 263 708 q 699 624 590 708 l 774 694 l 807 694 l 717 610 m 233 590 q 347 296 233 496 l 503 442 q 388 597 446 536 q 289 658 331 658 q 233 590 233 658 m 588 36 q 644 107 644 36 q 607 239 644 149 q 515 422 569 329 l 360 276 q 483 105 421 174 q 588 36 544 36 z "},"ù":{"ha":886,"x_min":7,"x_max":861,"o":"m 547 736 l 546 736 l 206 1026 l 206 1028 l 499 1028 l 547 736 m 792 22 l 861 22 l 861 0 l 514 0 l 514 107 q 424 44 457 65 q 346 3 390 22 q 265 -15 301 -15 q 129 42 172 -15 q 86 222 86 99 l 86 521 l 7 589 l 364 714 l 364 278 q 378 150 364 185 q 443 115 393 115 q 514 129 475 115 l 514 528 l 435 596 l 792 721 l 792 22 z "},"ú":{"ha":886,"x_min":7,"x_max":861,"o":"m 728 1025 l 388 735 l 386 735 l 435 1026 l 728 1026 l 728 1025 m 792 22 l 861 22 l 861 0 l 514 0 l 514 107 q 424 44 457 65 q 346 3 390 22 q 265 -15 301 -15 q 129 42 172 -15 q 86 222 86 99 l 86 521 l 7 589 l 364 714 l 364 278 q 378 150 364 185 q 443 115 393 115 q 514 129 475 115 l 514 528 l 435 596 l 792 721 l 792 22 z "},"û":{"ha":886,"x_min":7,"x_max":861,"o":"m 461 869 l 199 725 l 197 726 l 381 1039 l 539 1039 l 724 726 l 722 725 l 461 869 m 792 22 l 861 22 l 861 0 l 514 0 l 514 107 q 424 44 457 65 q 346 3 390 22 q 265 -15 301 -15 q 129 42 172 -15 q 86 222 86 99 l 86 521 l 7 589 l 364 714 l 364 278 q 378 150 364 185 q 443 115 393 115 q 514 129 475 115 l 514 528 l 435 596 l 792 721 l 792 22 z "},"ü":{"ha":886,"x_min":7,"x_max":861,"o":"m 399 797 q 381 777 399 797 q 304 758 364 758 q 210 797 244 758 q 175 896 175 835 q 210 994 175 956 q 304 1033 244 1033 q 399 994 364 1033 q 433 896 433 956 q 399 797 433 835 m 711 797 q 694 777 711 797 q 617 758 676 758 q 522 797 557 758 q 488 896 488 835 q 522 994 488 956 q 617 1033 557 1033 q 711 994 676 1033 q 746 896 746 956 q 711 797 746 835 m 792 22 l 861 22 l 861 0 l 514 0 l 514 107 q 424 44 457 65 q 346 3 390 22 q 265 -15 301 -15 q 129 42 172 -15 q 86 222 86 99 l 86 521 l 7 589 l 364 714 l 364 278 q 378 150 364 185 q 443 115 393 115 q 514 129 475 115 l 514 528 l 435 596 l 792 721 l 792 22 z "},"ý":{"ha":842,"x_min":0,"x_max":842,"o":"m 800 1025 l 460 735 l 458 735 l 507 1026 l 800 1026 l 800 1025 m 572 681 l 842 681 l 749 613 l 447 0 l 282 -362 l 18 -178 l 422 7 l 94 613 l 0 681 l 488 681 l 394 613 l 549 247 l 679 613 l 572 681 z "},"þ":{"ha":911,"x_min":17,"x_max":863,"o":"m 615 708 q 794 622 725 708 q 863 379 863 536 q 773 92 863 199 q 540 -14 683 -14 q 374 36 451 -14 l 374 -325 l 485 -325 l 485 -347 l 26 -347 l 26 -325 l 96 -325 l 96 849 l 17 917 l 374 1042 l 374 585 q 615 708 494 708 m 442 39 q 531 108 497 39 q 565 300 565 178 q 432 579 565 579 q 374 565 406 579 l 374 60 q 442 39 403 39 z "},"ÿ":{"ha":842,"x_min":0,"x_max":842,"o":"m 471 797 q 453 777 471 797 q 376 758 436 758 q 282 797 317 758 q 247 896 247 835 q 282 994 247 956 q 376 1033 317 1033 q 471 994 436 1033 q 506 896 506 956 q 471 797 506 835 m 783 797 q 766 777 783 797 q 689 758 749 758 q 594 797 629 758 q 560 896 560 835 q 594 994 560 956 q 689 1033 629 1033 q 783 994 749 1033 q 818 896 818 956 q 783 797 818 835 m 572 681 l 842 681 l 749 613 l 447 0 l 282 -362 l 18 -178 l 422 7 l 94 613 l 0 681 l 488 681 l 394 613 l 549 247 l 679 613 l 572 681 z "},"Œ":{"ha":1506,"x_min":42,"x_max":1422,"o":"m 1421 653 q 1220 901 1326 826 q 986 978 1114 976 l 986 533 q 1118 587 1053 536 q 1222 717 1183 638 l 1224 717 l 1224 329 l 1222 329 q 1119 460 1183 410 q 986 514 1054 511 l 986 22 q 1221 99 1115 25 q 1421 347 1326 174 l 1422 347 l 1422 0 l 638 0 q 200 131 358 0 q 42 506 42 263 q 193 871 42 742 q 619 1000 344 1000 l 803 1000 l 972 1000 l 986 1000 l 1422 1000 l 1422 653 l 1421 653 m 658 22 l 681 22 l 681 978 l 646 978 q 435 855 510 978 q 361 504 361 732 q 442 151 361 281 q 658 22 522 22 z "},"œ":{"ha":1269,"x_min":49,"x_max":1256,"o":"m 1254 126 l 1256 125 q 975 -14 1164 -14 q 719 85 821 -14 q 432 -14 614 -14 q 163 88 276 -14 q 49 351 49 189 q 156 606 49 503 q 431 708 263 708 q 721 606 610 708 q 976 708 819 708 q 1135 658 1074 708 q 1197 531 1197 607 q 1131 370 1197 443 q 942 251 1065 297 q 1214 122 1074 122 q 1254 126 1236 122 m 847 660 q 790 578 790 660 q 806 474 790 528 l 811 456 q 933 260 846 350 q 988 436 988 329 q 941 591 988 522 q 847 660 894 660 m 588 36 q 644 107 644 36 q 582 298 644 165 q 433 544 519 431 q 289 658 346 658 q 233 590 233 658 q 297 390 233 524 q 447 146 361 256 q 588 36 533 36 z "},"Ÿ":{"ha":1113,"x_min":0,"x_max":1113,"o":"m 600 1116 q 583 1097 600 1116 q 506 1078 565 1078 q 411 1116 446 1078 q 376 1215 376 1154 q 411 1314 376 1275 q 506 1353 446 1353 q 600 1314 565 1353 q 635 1215 635 1275 q 600 1116 635 1154 m 913 1116 q 895 1097 913 1116 q 818 1078 878 1078 q 724 1116 758 1078 q 689 1215 689 1154 q 724 1314 689 1275 q 818 1353 758 1353 q 913 1314 878 1353 q 947 1215 947 1275 q 913 1116 947 1154 m 989 925 l 719 394 l 719 22 l 831 22 l 831 0 l 303 0 l 303 22 l 414 22 l 414 314 l 110 925 l 0 1000 l 568 1000 l 444 925 l 701 411 l 868 925 l 717 1000 l 1113 1000 l 989 925 z "},"˜":{"ha":696,"x_min":101,"x_max":594,"o":"m 579 740 q 478 831 564 831 q 368 794 443 831 q 243 758 293 758 q 135 827 168 758 q 113 1022 101 896 l 117 1022 q 217 932 132 932 q 326 968 251 932 q 450 1004 401 1004 q 560 935 526 1004 q 583 740 594 867 l 579 740 z "},"–":{"ha":694,"x_min":14,"x_max":681,"o":"m 14 328 l 14 372 l 681 372 l 681 328 l 14 328 z "},"—":{"ha":1389,"x_min":69,"x_max":1319,"o":"m 69 328 l 69 372 l 1319 372 l 1319 328 l 69 328 z "},"‘":{"ha":397,"x_min":56,"x_max":328,"o":"m 194 621 q 96 659 136 621 q 56 763 56 697 q 119 931 56 853 q 301 1040 183 1008 q 206 889 221 968 q 287 853 246 889 q 328 754 328 817 q 289 660 328 699 q 194 621 250 621 z "},"’":{"ha":399,"x_min":69,"x_max":342,"o":"m 96 621 q 192 772 176 693 q 110 808 151 772 q 69 907 69 844 q 108 1001 69 963 q 203 1040 147 1040 q 301 1002 261 1040 q 342 899 342 964 q 278 731 342 808 q 96 621 214 653 z "},"“":{"ha":774,"x_min":56,"x_max":704,"o":"m 194 621 q 96 659 136 621 q 56 763 56 697 q 119 931 56 853 q 301 1040 183 1008 q 206 889 221 968 q 287 853 246 889 q 328 754 328 817 q 289 660 328 699 q 194 621 250 621 m 571 621 q 472 659 513 621 q 432 763 432 697 q 496 931 432 853 q 678 1040 560 1008 q 582 889 597 968 q 663 853 622 889 q 704 754 704 817 q 665 660 704 699 q 571 621 626 621 z "},"”":{"ha":774,"x_min":69,"x_max":717,"o":"m 96 621 q 192 772 176 693 q 110 808 151 772 q 69 907 69 844 q 108 1001 69 963 q 203 1040 147 1040 q 301 1002 261 1040 q 342 899 342 964 q 278 731 342 808 q 96 621 214 653 m 471 621 q 567 772 551 693 q 485 808 526 772 q 444 907 444 844 q 483 1001 444 963 q 578 1040 522 1040 q 676 1002 636 1040 q 717 899 717 964 q 653 731 717 808 q 471 621 589 653 z "},"„":{"ha":775,"x_min":69,"x_max":718,"o":"m 96 -160 q 192 -8 176 -87 q 110 28 151 -8 q 69 126 69 64 q 108 221 69 182 q 203 260 147 260 q 301 222 261 260 q 342 118 342 183 q 278 -50 342 28 q 96 -160 214 -128 m 472 -160 q 568 -8 553 -87 q 487 28 528 -8 q 446 126 446 64 q 485 221 446 182 q 579 260 524 260 q 678 222 638 260 q 718 118 718 183 q 654 -50 718 28 q 472 -160 590 -128 z "},"•":{"ha":406,"x_min":40,"x_max":365,"o":"m 321 390 q 299 368 321 390 q 203 346 276 346 q 85 390 129 346 q 40 510 40 433 q 85 630 40 586 q 203 674 129 674 q 321 630 276 674 q 365 510 365 586 q 321 390 365 433 z "},"…":{"ha":1063,"x_min":42,"x_max":1021,"o":"m 272 15 q 254 -3 272 15 q 175 -21 236 -21 q 78 15 114 -21 q 42 114 42 51 q 78 213 42 176 q 175 249 114 249 q 272 213 236 249 q 308 114 308 176 q 272 15 308 51 m 629 15 q 611 -3 629 15 q 532 -21 593 -21 q 435 15 471 -21 q 399 114 399 51 q 435 213 399 176 q 532 249 471 249 q 629 213 593 249 q 665 114 665 176 q 629 15 665 51 m 985 15 q 967 -3 985 15 q 888 -21 949 -21 q 790 15 826 -21 q 754 114 754 51 q 790 213 754 176 q 888 249 826 249 q 985 213 949 249 q 1021 114 1021 176 q 985 15 1021 51 z "},"‹":{"ha":421,"x_min":28,"x_max":386,"o":"m 385 631 l 386 629 l 228 343 l 386 57 l 385 56 l 28 342 l 28 343 l 385 631 z "},"›":{"ha":421,"x_min":35,"x_max":393,"o":"m 36 56 l 35 57 l 193 343 l 35 629 l 36 631 l 393 344 l 393 343 l 36 56 z "},"€":{"ha":981,"x_min":14,"x_max":939,"o":"m 821 371 l 822 371 l 928 50 q 621 -28 800 -28 q 287 92 421 -28 q 136 425 153 211 l 14 425 l 14 453 l 133 453 l 133 485 q 138 557 133 521 l 14 557 l 14 585 l 140 585 q 302 904 169 781 q 622 1028 435 1028 q 939 932 772 1028 l 822 631 l 821 631 l 681 988 q 622 1000 651 1000 q 507 891 553 1000 q 454 585 461 782 l 664 585 l 664 557 l 453 557 l 453 514 q 454 453 453 472 l 664 453 l 664 425 l 454 425 q 513 110 464 222 q 639 -1 561 -1 q 679 7 664 -1 l 821 371 z "},"™":{"ha":1636,"x_min":56,"x_max":1617,"o":"m 685 1011 l 685 769 l 683 769 q 472 989 596 971 l 472 432 l 544 432 l 544 411 l 194 411 l 194 432 l 267 432 l 267 989 q 57 769 144 969 l 56 769 l 56 1011 l 685 1011 m 1553 432 l 1617 432 l 1617 411 l 1268 411 l 1268 432 l 1353 432 l 1285 931 l 1103 407 l 1051 407 l 836 924 l 811 432 l 901 432 l 901 411 l 689 411 l 689 432 l 744 432 l 821 961 l 743 1011 l 1014 1011 l 1163 638 l 1261 1011 l 1557 1011 l 1481 960 l 1553 432 z "}}}
